<?xml version="1.0" encoding="UTF-8" standalone="no"?>
<!DOCTYPE svg PUBLIC "-//W3C//DTD SVG 1.1//EN"
 "http://www.w3.org/Graphics/SVG/1.1/DTD/svg11.dtd">
<!-- Generated by graphviz version 2.40.1 (20161225.0304)
 -->
<!-- Title: main Pages: 1 -->
<svg width="649pt" height="228pt"
 viewBox="0.00 0.00 648.57 228.00" xmlns="http://www.w3.org/2000/svg" xmlns:xlink="http://www.w3.org/1999/xlink">
<g id="graph0" class="graph" transform="scale(1 1) rotate(0) translate(4 224)">
<title>main</title>
<polygon fill="#ffffff" stroke="transparent" points="-4,4 -4,-224 644.5663,-224 644.5663,4 -4,4"/>
<!-- GitHub -->
<g id="node1" class="node">
<title>GitHub</title>
<ellipse fill="none" stroke="#0000ff" cx="37.0467" cy="-18" rx="37.0935" ry="18"/>
<text text-anchor="middle" x="37.0467" y="-14.3" font-family="Times,serif" font-size="14.00" fill="#000000">GitHub</text>
</g>
<!-- Atlantis -->
<g id="node2" class="node">
<title>Atlantis</title>
<ellipse fill="none" stroke="#0000ff" cx="157.44" cy="-111" rx="38.1938" ry="18"/>
<text text-anchor="middle" x="157.44" y="-107.3" font-family="Times,serif" font-size="14.00" fill="#000000">Atlantis</text>
</g>
<!-- GitHub&#45;&gt;Atlantis -->
<g id="edge6" class="edge">
<title>GitHub&#45;&gt;Atlantis</title>
<path fill="none" stroke="#0000ff" d="M56.9272,-33.3571C76.5888,-48.545 106.8702,-71.9364 129.0588,-89.0764"/>
<polygon fill="#0000ff" stroke="#0000ff" points="127.0741,-91.9659 137.1276,-95.3093 131.3533,-86.4262 127.0741,-91.9659"/>
<text text-anchor="middle" x="96.5934" y="-71.8" font-family="Times,serif" font-size="14.00" fill="#000000">tf</text>
</g>
<!-- Jenkins -->
<g id="node4" class="node">
<title>Jenkins</title>
<ellipse fill="none" stroke="#000000" cx="576.222" cy="-73" rx="37.0935" ry="18"/>
<text text-anchor="middle" x="576.222" y="-69.3" font-family="Times,serif" font-size="14.00" fill="#000000">Jenkins</text>
</g>
<!-- GitHub&#45;&gt;Jenkins -->
<g id="edge1" class="edge">
<title>GitHub&#45;&gt;Jenkins</title>
<path fill="none" stroke="#000000" d="M73.0808,-13.3141C151.2862,-4.3384 341.7801,11.0394 493.8777,-29 512.3103,-33.8523 531.1837,-43.531 546.2037,-52.5781"/>
<polygon fill="#000000" stroke="#000000" points="544.683,-55.7547 555.0193,-58.0808 548.3896,-49.8166 544.683,-55.7547"/>
<text text-anchor="middle" x="230.7866" y="-7.8" font-family="Times,serif" font-size="14.00" fill="#000000">code</text>
</g>
<!-- cloud_provider -->
<g id="node3" class="node">
<title>cloud_provider</title>
<ellipse fill="none" stroke="#0000ff" cx="576.222" cy="-202" rx="64.189" ry="18"/>
<text text-anchor="middle" x="576.222" y="-198.3" font-family="Times,serif" font-size="14.00" fill="#000000">cloud_provider</text>
</g>
<!-- Atlantis&#45;&gt;cloud_provider -->
<g id="edge8" class="edge">
<title>Atlantis&#45;&gt;cloud_provider</title>
<path fill="none" stroke="#0000ff" d="M182.6338,-124.6591C223.464,-145.9437 307.2585,-186.1249 383.8777,-201 423.2808,-208.6498 468.0858,-209.3365 504.5333,-207.9123"/>
<polygon fill="#0000ff" stroke="#0000ff" points="504.7484,-211.4063 514.5803,-207.4587 504.4326,-204.4134 504.7484,-211.4063"/>
<text text-anchor="middle" x="315.8322" y="-199.8" font-family="Times,serif" font-size="14.00" fill="#000000">tf, creds, helm</text>
</g>
<!-- Artifactory -->
<g id="node5" class="node">
<title>Artifactory</title>
<ellipse fill="none" stroke="#000000" cx="315.8322" cy="-111" rx="50.0912" ry="18"/>
<text text-anchor="middle" x="315.8322" y="-107.3" font-family="Times,serif" font-size="14.00" fill="#000000">Artifactory</text>
</g>
<!-- Atlantis&#45;&gt;Artifactory -->
<g id="edge9" class="edge">
<title>Atlantis&#45;&gt;Artifactory</title>
<path fill="none" stroke="#000000" d="M196.1871,-111C213.969,-111 235.4698,-111 255.312,-111"/>
<polygon fill="#000000" stroke="#000000" points="255.5085,-114.5001 265.5085,-111 255.5085,-107.5001 255.5085,-114.5001"/>
<text text-anchor="middle" x="230.7866" y="-114.8" font-family="Times,serif" font-size="14.00" fill="#000000">tfstate</text>
</g>
<!-- Jenkins&#45;&gt;Artifactory -->
<g id="edge2" class="edge">
<title>Jenkins&#45;&gt;Artifactory</title>
<path fill="none" stroke="#000000" d="M541.8605,-80.2257C527.1274,-83.1812 509.6992,-86.4885 493.8777,-89 453.9821,-95.3331 408.8114,-100.8959 373.9509,-104.8435"/>
<polygon fill="#000000" stroke="#000000" points="373.492,-101.3729 363.9438,-105.9644 374.2713,-108.3294 373.492,-101.3729"/>
<text text-anchor="middle" x="438.8777" y="-106.8" font-family="Times,serif" font-size="14.00" fill="#000000">jar&#45;file</text>
</g>
<!-- Jenkins&#45;&gt;Artifactory -->
<g id="edge4" class="edge">
<title>Jenkins&#45;&gt;Artifactory</title>
<path fill="none" stroke="#000000" d="M541.4236,-66.6427C502.3096,-60.8211 437.2916,-55.1516 383.8777,-70 370.1119,-73.8267 356.3445,-81.2702 344.831,-88.7767"/>
<polygon fill="#000000" stroke="#000000" points="342.7829,-85.9371 336.5032,-94.4704 346.7337,-91.7157 342.7829,-85.9371"/>
<text text-anchor="middle" x="438.8777" y="-73.8" font-family="Times,serif" font-size="14.00" fill="#000000">image</text>
</g>
<!-- Jenkins&#45;&gt;Artifactory -->
<g id="edge5" class="edge">
<title>Jenkins&#45;&gt;Artifactory</title>
<path fill="none" stroke="#000000" d="M549.9645,-60.0731C511.9178,-43.2381 439.889,-18.5705 383.8777,-42 363.0551,-50.7101 345.3695,-69.2404 333.2515,-84.9063"/>
<polygon fill="#000000" stroke="#000000" points="330.2277,-83.1094 327.1074,-93.2344 335.8607,-87.2652 330.2277,-83.1094"/>
<text text-anchor="middle" x="438.8777" y="-45.8" font-family="Times,serif" font-size="14.00" fill="#000000">chart</text>
</g>
<!-- Artifactory&#45;&gt;cloud_provider -->
<g id="edge7" class="edge">
<title>Artifactory&#45;&gt;cloud_provider</title>
<path fill="none" stroke="#000000" d="M341.3381,-126.6418C353.8358,-133.8414 369.3016,-142.0787 383.8777,-148 426.5022,-165.3155 476.5955,-179.1848 514.9738,-188.5304"/>
<polygon fill="#000000" stroke="#000000" points="514.4276,-191.9986 524.9681,-190.9267 516.0598,-185.1915 514.4276,-191.9986"/>
<text text-anchor="middle" x="438.8777" y="-185.8" font-family="Times,serif" font-size="14.00" fill="#000000">docker&#45;image, chart</text>
</g>
<!-- Artifactory&#45;&gt;Jenkins -->
<g id="edge3" class="edge">
<title>Artifactory&#45;&gt;Jenkins</title>
<path fill="none" stroke="#000000" d="M357.6381,-121.1518C394.2315,-128.2645 448.4892,-134.483 493.8777,-122 513.5881,-116.5791 533.3491,-105.0723 548.5706,-94.5712"/>
<polygon fill="#000000" stroke="#000000" points="550.878,-97.2239 556.9735,-88.5581 546.8044,-91.5313 550.878,-97.2239"/>
<text text-anchor="middle" x="438.8777" y="-132.8" font-family="Times,serif" font-size="14.00" fill="#000000">jar&#45;file</text>
</g>
</g>
</svg>
