<?xml version="1.0" encoding="UTF-8" standalone="no"?>
<!DOCTYPE svg PUBLIC "-//W3C//DTD SVG 1.1//EN"
 "http://www.w3.org/Graphics/SVG/1.1/DTD/svg11.dtd">
<!-- Generated by graphviz version 2.40.1 (20161225.0304)
 -->
<!-- Title: main Pages: 1 -->
<svg width="458pt" height="98pt"
 viewBox="0.00 0.00 458.48 98.00" xmlns="http://www.w3.org/2000/svg" xmlns:xlink="http://www.w3.org/1999/xlink">
<g id="graph0" class="graph" transform="scale(1 1) rotate(0) translate(4 94)">
<title>main</title>
<polygon fill="#ffffff" stroke="transparent" points="-4,4 -4,-94 454.4821,-94 454.4821,4 -4,4"/>
<!-- vcs -->
<g id="node1" class="node">
<title>vcs</title>
<ellipse fill="none" stroke="#000000" cx="27" cy="-45" rx="27" ry="18"/>
<text text-anchor="middle" x="27" y="-41.3" font-family="Times,serif" font-size="14.00" fill="#000000">vcs</text>
</g>
<!-- atlantis -->
<g id="node2" class="node">
<title>atlantis</title>
<ellipse fill="none" stroke="#000000" cx="176.3968" cy="-45" rx="36.2938" ry="18"/>
<text text-anchor="middle" x="176.3968" y="-41.3" font-family="Times,serif" font-size="14.00" fill="#000000">atlantis</text>
</g>
<!-- vcs&#45;&gt;atlantis -->
<g id="edge1" class="edge">
<title>vcs&#45;&gt;atlantis</title>
<path fill="none" stroke="#000000" d="M49.9489,-54.8578C56.9011,-57.3774 64.6461,-59.7315 72,-61 93.8988,-64.7773 100.0047,-64.1677 122,-61 126.8017,-60.3085 131.7705,-59.2903 136.6642,-58.0968"/>
<polygon fill="#000000" stroke="#000000" points="137.7754,-61.4225 146.526,-55.4493 135.9604,-54.6618 137.7754,-61.4225"/>
<text text-anchor="middle" x="97" y="-66.8" font-family="Times,serif" font-size="14.00" fill="#000000">webhook</text>
</g>
<!-- vcs&#45;&gt;atlantis -->
<g id="edge2" class="edge">
<title>vcs&#45;&gt;atlantis</title>
<path fill="none" stroke="#000000" d="M54.1129,-42.8995C60.006,-42.5248 66.2091,-42.1928 72,-42 94.2099,-41.2605 99.7862,-41.3879 122,-42 124.5646,-42.0707 127.1964,-42.16 129.8524,-42.2634"/>
<polygon fill="#000000" stroke="#000000" points="129.9796,-45.7724 140.1255,-42.7209 130.2912,-38.7793 129.9796,-45.7724"/>
<text text-anchor="middle" x="97" y="-45.8" font-family="Times,serif" font-size="14.00" fill="#000000">tf&#45;file</text>
</g>
<!-- atlantis&#45;&gt;vcs -->
<g id="edge5" class="edge">
<title>atlantis&#45;&gt;vcs</title>
<path fill="none" stroke="#000000" d="M151.3386,-31.9343C142.3375,-27.9134 131.9485,-24.0168 122,-22 100.2208,-17.5849 93.605,-16.7987 72,-22 66.5621,-23.3092 61.0419,-25.3926 55.8177,-27.7835"/>
<polygon fill="#000000" stroke="#000000" points="54.1717,-24.6936 46.8154,-32.3183 57.3209,-30.9452 54.1717,-24.6936"/>
<text text-anchor="middle" x="97" y="-25.8" font-family="Times,serif" font-size="14.00" fill="#000000">output</text>
</g>
<!-- cloud_provider -->
<g id="node3" class="node">
<title>cloud_provider</title>
<ellipse fill="none" stroke="#000000" cx="386.1378" cy="-72" rx="64.189" ry="18"/>
<text text-anchor="middle" x="386.1378" y="-68.3" font-family="Times,serif" font-size="14.00" fill="#000000">cloud_provider</text>
</g>
<!-- atlantis&#45;&gt;cloud_provider -->
<g id="edge3" class="edge">
<title>atlantis&#45;&gt;cloud_provider</title>
<path fill="none" stroke="#000000" d="M211.9765,-49.5802C240.6976,-53.2775 281.9694,-58.5904 317.1277,-63.1163"/>
<polygon fill="#000000" stroke="#000000" points="316.9777,-66.6258 327.3428,-64.4313 317.8715,-59.6831 316.9777,-66.6258"/>
<text text-anchor="middle" x="267.2935" y="-63.8" font-family="Times,serif" font-size="14.00" fill="#000000">infrastructure</text>
</g>
<!-- backend -->
<g id="node4" class="node">
<title>backend</title>
<ellipse fill="none" stroke="#000000" cx="386.1378" cy="-18" rx="40.0939" ry="18"/>
<text text-anchor="middle" x="386.1378" y="-14.3" font-family="Times,serif" font-size="14.00" fill="#000000">backend</text>
</g>
<!-- atlantis&#45;&gt;backend -->
<g id="edge4" class="edge">
<title>atlantis&#45;&gt;backend</title>
<path fill="none" stroke="#000000" d="M209.3564,-37.0597C216.4007,-35.5508 223.8202,-34.1017 230.7935,-33 265.7788,-27.4728 305.5405,-23.6791 336.0781,-21.2898"/>
<polygon fill="#000000" stroke="#000000" points="336.3538,-24.779 346.0605,-20.5329 335.8245,-17.7991 336.3538,-24.779"/>
<text text-anchor="middle" x="267.2935" y="-36.8" font-family="Times,serif" font-size="14.00" fill="#000000">tfstate</text>
</g>
</g>
</svg>
