<?xml version="1.0" encoding="UTF-8" standalone="no"?>
<!DOCTYPE svg PUBLIC "-//W3C//DTD SVG 1.1//EN"
 "http://www.w3.org/Graphics/SVG/1.1/DTD/svg11.dtd">
<!-- Generated by graphviz version 2.40.1 (20161225.0304)
 -->
<!-- Title: main Pages: 1 -->
<svg width="482pt" height="110pt"
 viewBox="0.00 0.00 482.48 110.21" xmlns="http://www.w3.org/2000/svg" xmlns:xlink="http://www.w3.org/1999/xlink">
<g id="graph0" class="graph" transform="scale(1 1) rotate(0) translate(4 106.2148)">
<title>main</title>
<polygon fill="#ffffff" stroke="transparent" points="-4,4 -4,-106.2148 478.4752,-106.2148 478.4752,4 -4,4"/>
<!-- GitHub -->
<g id="node1" class="node">
<title>GitHub</title>
<ellipse fill="none" stroke="#000000" cx="37.0467" cy="-46.2148" rx="37.0935" ry="18"/>
<text text-anchor="middle" x="37.0467" y="-42.5148" font-family="Times,serif" font-size="14.00" fill="#000000">GitHub</text>
</g>
<!-- Atlantis -->
<g id="node2" class="node">
<title>Atlantis</title>
<ellipse fill="none" stroke="#000000" cx="198.44" cy="-46.2148" rx="38.1938" ry="18"/>
<text text-anchor="middle" x="198.44" y="-42.5148" font-family="Times,serif" font-size="14.00" fill="#000000">Atlantis</text>
</g>
<!-- GitHub&#45;&gt;Atlantis -->
<g id="edge1" class="edge">
<title>GitHub&#45;&gt;Atlantis</title>
<path fill="none" stroke="#ff0000" d="M56.099,-62.1384C66.134,-69.49 79.0448,-77.4177 92.0934,-81.2148 113.4306,-87.4237 120.7239,-87.3115 142.0934,-81.2148 152.0385,-78.3775 161.9401,-73.2237 170.605,-67.7279"/>
<polygon fill="#ff0000" stroke="#ff0000" points="172.8129,-70.46 179.1369,-61.9596 168.8923,-64.661 172.8129,-70.46"/>
<text text-anchor="middle" x="117.0934" y="-89.0148" font-family="Times,serif" font-size="14.00" fill="#000000">webhook</text>
</g>
<!-- GitHub&#45;&gt;Atlantis -->
<g id="edge2" class="edge">
<title>GitHub&#45;&gt;Atlantis</title>
<path fill="none" stroke="#ff0000" d="M74.4792,-46.2148C96.9676,-46.2148 125.8204,-46.2148 150.0304,-46.2148"/>
<polygon fill="#ff0000" stroke="#ff0000" points="150.0898,-49.7149 160.0897,-46.2148 150.0897,-42.7149 150.0898,-49.7149"/>
<text text-anchor="middle" x="117.0934" y="-50.0148" font-family="Times,serif" font-size="14.00" fill="#000000">tf&#45;file</text>
</g>
<!-- GitHub&#45;&gt;Atlantis -->
<g id="edge3" class="edge">
<title>GitHub&#45;&gt;Atlantis</title>
<path fill="none" stroke="#000000" d="M65.4309,-34.4075C73.8625,-31.4531 83.2195,-28.7032 92.0934,-27.2148 114.0095,-23.5389 120.1644,-23.6171 142.0934,-27.2148 147.9018,-28.1677 153.9179,-29.6386 159.7611,-31.3495"/>
<polygon fill="#000000" stroke="#000000" points="158.7737,-34.7082 169.3642,-34.4064 160.897,-28.038 158.7737,-34.7082"/>
<text text-anchor="middle" x="117.0934" y="-31.0148" font-family="Times,serif" font-size="14.00" fill="#000000">apply</text>
</g>
<!-- Atlantis&#45;&gt;GitHub -->
<g id="edge7" class="edge">
<title>Atlantis&#45;&gt;GitHub</title>
<path fill="none" stroke="#000000" d="M181.7961,-29.7311C171.346,-20.577 157.0493,-10.0802 142.0934,-5.2148 120.9613,1.6598 113.1869,1.7775 92.0934,-5.2148 80.8354,-8.9467 70.0106,-15.9743 60.9839,-23.1708"/>
<polygon fill="#000000" stroke="#000000" points="58.6027,-20.601 53.2387,-29.7376 63.1297,-25.9402 58.6027,-20.601"/>
<text text-anchor="middle" x="117.0934" y="-9.0148" font-family="Times,serif" font-size="14.00" fill="#000000">output</text>
</g>
<!-- cloud_provider -->
<g id="node3" class="node">
<title>cloud_provider</title>
<ellipse fill="none" stroke="#000000" cx="410.1309" cy="-84.2148" rx="64.189" ry="18"/>
<text text-anchor="middle" x="410.1309" y="-80.5148" font-family="Times,serif" font-size="14.00" fill="#000000">cloud_provider</text>
</g>
<!-- Atlantis&#45;&gt;cloud_provider -->
<g id="edge4" class="edge">
<title>Atlantis&#45;&gt;cloud_provider</title>
<path fill="none" stroke="#000000" d="M233.8869,-53.2509C240.8127,-54.5928 248.0235,-55.967 254.7866,-57.2148 284.2761,-62.6554 316.9731,-68.3838 344.7325,-73.1575"/>
<polygon fill="#000000" stroke="#000000" points="344.2735,-76.6297 354.7212,-74.8707 345.4568,-69.7305 344.2735,-76.6297"/>
<text text-anchor="middle" x="291.2866" y="-73.0148" font-family="Times,serif" font-size="14.00" fill="#000000">infrastructure</text>
</g>
<!-- backend -->
<g id="node4" class="node">
<title>backend</title>
<ellipse fill="none" stroke="#000000" cx="410.1309" cy="-19.2148" rx="40.0939" ry="18"/>
<text text-anchor="middle" x="410.1309" y="-15.5148" font-family="Times,serif" font-size="14.00" fill="#000000">backend</text>
</g>
<!-- Atlantis&#45;&gt;backend -->
<g id="edge5" class="edge">
<title>Atlantis&#45;&gt;backend</title>
<path fill="none" stroke="#000000" d="M235.7988,-41.4499C270.6258,-37.0079 322.789,-30.3548 360.9809,-25.4836"/>
<polygon fill="#000000" stroke="#000000" points="361.8797,-28.8974 371.3565,-24.1602 360.994,-21.9537 361.8797,-28.8974"/>
<text text-anchor="middle" x="291.2866" y="-42.0148" font-family="Times,serif" font-size="14.00" fill="#000000">tfstate</text>
</g>
<!-- backend&#45;&gt;Atlantis -->
<g id="edge6" class="edge">
<title>backend&#45;&gt;Atlantis</title>
<path fill="none" stroke="#000000" d="M374.2207,-10.8667C342.2469,-4.9507 294.5192,.1209 254.7866,-11.2148 244.8416,-14.0521 234.9399,-19.2059 226.2751,-24.7017"/>
<polygon fill="#000000" stroke="#000000" points="224.0671,-21.9696 217.7431,-30.47 227.9878,-27.7686 224.0671,-21.9696"/>
<text text-anchor="middle" x="291.2866" y="-15.0148" font-family="Times,serif" font-size="14.00" fill="#000000">tfstate</text>
</g>
</g>
</svg>
