<?xml version="1.0" encoding="UTF-8" standalone="no"?>
<!DOCTYPE svg PUBLIC "-//W3C//DTD SVG 1.1//EN"
 "http://www.w3.org/Graphics/SVG/1.1/DTD/svg11.dtd">
<!-- Generated by graphviz version 2.40.1 (20161225.0304)
 -->
<!-- Title: main Pages: 1 -->
<svg width="458pt" height="112pt"
 viewBox="0.00 0.00 458.48 111.87" xmlns="http://www.w3.org/2000/svg" xmlns:xlink="http://www.w3.org/1999/xlink">
<g id="graph0" class="graph" transform="scale(1 1) rotate(0) translate(4 107.8682)">
<title>main</title>
<polygon fill="#ffffff" stroke="transparent" points="-4,4 -4,-107.8682 454.4821,-107.8682 454.4821,4 -4,4"/>
<!-- vcs -->
<g id="node1" class="node">
<title>vcs</title>
<ellipse fill="none" stroke="#000000" cx="27" cy="-47.8682" rx="27" ry="18"/>
<text text-anchor="middle" x="27" y="-44.1682" font-family="Times,serif" font-size="14.00" fill="#000000">vcs</text>
</g>
<!-- atlantis -->
<g id="node2" class="node">
<title>atlantis</title>
<ellipse fill="none" stroke="#000000" cx="176.3968" cy="-47.8682" rx="36.2938" ry="18"/>
<text text-anchor="middle" x="176.3968" y="-44.1682" font-family="Times,serif" font-size="14.00" fill="#000000">atlantis</text>
</g>
<!-- vcs&#45;&gt;atlantis -->
<g id="edge1" class="edge">
<title>vcs&#45;&gt;atlantis</title>
<path fill="none" stroke="#000000" d="M41.6931,-63.3767C49.8234,-70.8169 60.5788,-78.9495 72,-82.8682 93.0194,-90.0801 100.6796,-89.1346 122,-82.8682 131.4947,-80.0775 140.8985,-75.0606 149.1489,-69.681"/>
<polygon fill="#000000" stroke="#000000" points="151.3976,-72.3799 157.5985,-63.7892 147.3938,-66.6379 151.3976,-72.3799"/>
<text text-anchor="middle" x="97" y="-91.6682" font-family="Times,serif" font-size="14.00" fill="#000000">webhook</text>
</g>
<!-- vcs&#45;&gt;atlantis -->
<g id="edge2" class="edge">
<title>vcs&#45;&gt;atlantis</title>
<path fill="none" stroke="#000000" d="M54.0546,-47.8682C75.0972,-47.8682 104.7968,-47.8682 129.6639,-47.8682"/>
<polygon fill="#000000" stroke="#000000" points="129.9861,-51.3683 139.9861,-47.8682 129.986,-44.3683 129.9861,-51.3683"/>
<text text-anchor="middle" x="97" y="-51.6682" font-family="Times,serif" font-size="14.00" fill="#000000">tf&#45;file</text>
</g>
<!-- vcs&#45;&gt;atlantis -->
<g id="edge3" class="edge">
<title>vcs&#45;&gt;atlantis</title>
<path fill="none" stroke="#ff0000" d="M48.4111,-36.773C55.6978,-33.5594 64.0208,-30.4836 72,-28.8682 93.7803,-24.4586 100.0907,-25.1519 122,-28.8682 127.5477,-29.8091 133.2837,-31.2539 138.8574,-32.9357"/>
<polygon fill="#ff0000" stroke="#ff0000" points="138.046,-36.3534 148.6391,-36.1611 140.2381,-29.7055 138.046,-36.3534"/>
<text text-anchor="middle" x="97" y="-32.6682" font-family="Times,serif" font-size="14.00" fill="#000000">apply</text>
</g>
<!-- atlantis&#45;&gt;vcs -->
<g id="edge7" class="edge">
<title>atlantis&#45;&gt;vcs</title>
<path fill="none" stroke="#000000" d="M160.9645,-31.4312C150.9025,-21.9606 136.9059,-10.953 122,-5.8682 100.9678,1.3065 92.6742,2.2808 72,-5.8682 62.3623,-9.667 53.5712,-16.611 46.3673,-23.7737"/>
<polygon fill="#000000" stroke="#000000" points="43.442,-21.7809 39.2085,-31.4932 48.5746,-26.5408 43.442,-21.7809"/>
<text text-anchor="middle" x="97" y="-9.6682" font-family="Times,serif" font-size="14.00" fill="#000000">output</text>
</g>
<!-- cloud_provider -->
<g id="node3" class="node">
<title>cloud_provider</title>
<ellipse fill="none" stroke="#000000" cx="386.1378" cy="-85.8682" rx="64.189" ry="18"/>
<text text-anchor="middle" x="386.1378" y="-82.1682" font-family="Times,serif" font-size="14.00" fill="#000000">cloud_provider</text>
</g>
<!-- atlantis&#45;&gt;cloud_provider -->
<g id="edge4" class="edge">
<title>atlantis&#45;&gt;cloud_provider</title>
<path fill="none" stroke="#000000" d="M210.0288,-54.8192C216.8923,-56.1955 224.0704,-57.6044 230.7935,-58.8682 260.2646,-64.408 292.9589,-70.1507 320.7213,-74.9083"/>
<polygon fill="#000000" stroke="#000000" points="320.2648,-78.3809 330.7113,-76.6143 321.4432,-71.4808 320.2648,-78.3809"/>
<text text-anchor="middle" x="267.2935" y="-74.6682" font-family="Times,serif" font-size="14.00" fill="#000000">infrastructure</text>
</g>
<!-- backend -->
<g id="node4" class="node">
<title>backend</title>
<ellipse fill="none" stroke="#000000" cx="386.1378" cy="-20.8682" rx="40.0939" ry="18"/>
<text text-anchor="middle" x="386.1378" y="-17.1682" font-family="Times,serif" font-size="14.00" fill="#000000">backend</text>
</g>
<!-- atlantis&#45;&gt;backend -->
<g id="edge5" class="edge">
<title>atlantis&#45;&gt;backend</title>
<path fill="none" stroke="#000000" d="M211.9765,-43.288C246.4158,-38.8546 298.9008,-32.0982 337.2529,-27.1611"/>
<polygon fill="#000000" stroke="#000000" points="337.7017,-30.6323 347.1729,-25.8841 336.8079,-23.6896 337.7017,-30.6323"/>
<text text-anchor="middle" x="267.2935" y="-43.6682" font-family="Times,serif" font-size="14.00" fill="#000000">tfstate</text>
</g>
<!-- backend&#45;&gt;atlantis -->
<g id="edge6" class="edge">
<title>backend&#45;&gt;atlantis</title>
<path fill="none" stroke="#000000" d="M350.4965,-12.4258C318.4924,-6.3838 270.5643,-1.1788 230.7935,-12.8682 221.2989,-15.6588 211.895,-20.6757 203.6446,-26.0554"/>
<polygon fill="#000000" stroke="#000000" points="201.3959,-23.3564 195.195,-31.9471 205.3997,-29.0984 201.3959,-23.3564"/>
<text text-anchor="middle" x="267.2935" y="-16.6682" font-family="Times,serif" font-size="14.00" fill="#000000">tfstate</text>
</g>
</g>
</svg>
