<?xml version="1.0" encoding="UTF-8" standalone="no"?>
<!DOCTYPE svg PUBLIC "-//W3C//DTD SVG 1.1//EN"
 "http://www.w3.org/Graphics/SVG/1.1/DTD/svg11.dtd">
<!-- Generated by graphviz version 2.40.1 (20161225.0304)
 -->
<!-- Title: main Pages: 1 -->
<svg width="382pt" height="44pt"
 viewBox="0.00 0.00 382.28 44.00" xmlns="http://www.w3.org/2000/svg" xmlns:xlink="http://www.w3.org/1999/xlink">
<g id="graph0" class="graph" transform="scale(1 1) rotate(0) translate(4 40)">
<title>main</title>
<polygon fill="#ffffff" stroke="transparent" points="-4,4 -4,-40 378.278,-40 378.278,4 -4,4"/>
<!-- GitHub -->
<g id="node1" class="node">
<title>GitHub</title>
<ellipse fill="none" stroke="#000000" cx="37.0467" cy="-18" rx="37.0935" ry="18"/>
<text text-anchor="middle" x="37.0467" y="-14.3" font-family="Times,serif" font-size="14.00" fill="#000000">GitHub</text>
</g>
<!-- Jenkins -->
<g id="node2" class="node">
<title>Jenkins</title>
<ellipse fill="none" stroke="#000000" cx="173.1401" cy="-18" rx="37.0935" ry="18"/>
<text text-anchor="middle" x="173.1401" y="-14.3" font-family="Times,serif" font-size="14.00" fill="#000000">Jenkins</text>
</g>
<!-- GitHub&#45;&gt;Jenkins -->
<g id="edge1" class="edge">
<title>GitHub&#45;&gt;Jenkins</title>
<path fill="none" stroke="#000000" d="M74.2348,-18C90.1373,-18 108.8925,-18 125.7718,-18"/>
<polygon fill="#000000" stroke="#000000" points="125.997,-21.5001 135.997,-18 125.9969,-14.5001 125.997,-21.5001"/>
<text text-anchor="middle" x="105.0934" y="-21.8" font-family="Times,serif" font-size="14.00" fill="#000000">code</text>
</g>
<!-- Artifactory -->
<g id="node3" class="node">
<title>Artifactory</title>
<ellipse fill="none" stroke="#000000" cx="324.2324" cy="-18" rx="50.0912" ry="18"/>
<text text-anchor="middle" x="324.2324" y="-14.3" font-family="Times,serif" font-size="14.00" fill="#000000">Artifactory</text>
</g>
<!-- Jenkins&#45;&gt;Artifactory -->
<g id="edge2" class="edge">
<title>Jenkins&#45;&gt;Artifactory</title>
<path fill="none" stroke="#000000" d="M210.4888,-18C226.5617,-18 245.7651,-18 263.7756,-18"/>
<polygon fill="#000000" stroke="#000000" points="263.9193,-21.5001 273.9192,-18 263.9192,-14.5001 263.9193,-21.5001"/>
<text text-anchor="middle" x="242.1869" y="-21.8" font-family="Times,serif" font-size="14.00" fill="#000000">chart</text>
</g>
</g>
</svg>
