<?xml version="1.0" encoding="UTF-8" standalone="no"?>
<!DOCTYPE svg PUBLIC "-//W3C//DTD SVG 1.1//EN"
 "http://www.w3.org/Graphics/SVG/1.1/DTD/svg11.dtd">
<!-- Generated by graphviz version 2.40.1 (20161225.0304)
 -->
<!-- Title: main Pages: 1 -->
<svg width="391pt" height="44pt"
 viewBox="0.00 0.00 391.28 44.00" xmlns="http://www.w3.org/2000/svg" xmlns:xlink="http://www.w3.org/1999/xlink">
<g id="graph0" class="graph" transform="scale(1 1) rotate(0) translate(4 40)">
<title>main</title>
<polygon fill="#ffffff" stroke="transparent" points="-4,4 -4,-40 387.278,-40 387.278,4 -4,4"/>
<!-- GitHub -->
<g id="node1" class="node">
<title>GitHub</title>
<ellipse fill="none" stroke="#000000" cx="37.0467" cy="-18" rx="37.0935" ry="18"/>
<text text-anchor="middle" x="37.0467" y="-14.3" font-family="Times,serif" font-size="14.00" fill="#000000">GitHub</text>
</g>
<!-- Jenkins -->
<g id="node2" class="node">
<title>Jenkins</title>
<ellipse fill="none" stroke="#000000" cx="173.1401" cy="-18" rx="37.0935" ry="18"/>
<text text-anchor="middle" x="173.1401" y="-14.3" font-family="Times,serif" font-size="14.00" fill="#000000">Jenkins</text>
</g>
<!-- GitHub&#45;&gt;Jenkins -->
<g id="edge1" class="edge">
<title>GitHub&#45;&gt;Jenkins</title>
<path fill="none" stroke="#000000" d="M74.2348,-18C90.1373,-18 108.8925,-18 125.7718,-18"/>
<polygon fill="#000000" stroke="#000000" points="125.997,-21.5001 135.997,-18 125.9969,-14.5001 125.997,-21.5001"/>
<text text-anchor="middle" x="105.0934" y="-21.8" font-family="Times,serif" font-size="14.00" fill="#000000">code</text>
</g>
<!-- Artifactory -->
<g id="node3" class="node">
<title>Artifactory</title>
<ellipse fill="none" stroke="#000000" cx="333.2324" cy="-18" rx="50.0912" ry="18"/>
<text text-anchor="middle" x="333.2324" y="-14.3" font-family="Times,serif" font-size="14.00" fill="#000000">Artifactory</text>
</g>
<!-- Jenkins&#45;&gt;Artifactory -->
<g id="edge2" class="edge">
<title>Jenkins&#45;&gt;Artifactory</title>
<path fill="none" stroke="#000000" d="M210.2709,-18C228.8457,-18 251.7978,-18 272.8234,-18"/>
<polygon fill="#000000" stroke="#000000" points="272.9626,-21.5001 282.9626,-18 272.9626,-14.5001 272.9626,-21.5001"/>
<text text-anchor="middle" x="246.6869" y="-21.8" font-family="Times,serif" font-size="14.00" fill="#000000">jar&#45;file</text>
</g>
</g>
</svg>
