<?xml version="1.0" encoding="UTF-8" standalone="no"?>
<!DOCTYPE svg PUBLIC "-//W3C//DTD SVG 1.1//EN"
 "http://www.w3.org/Graphics/SVG/1.1/DTD/svg11.dtd">
<!-- Generated by graphviz version 2.40.1 (20161225.0304)
 -->
<!-- Title: main Pages: 1 -->
<svg width="430pt" height="48pt"
 viewBox="0.00 0.00 430.28 47.75" xmlns="http://www.w3.org/2000/svg" xmlns:xlink="http://www.w3.org/1999/xlink">
<g id="graph0" class="graph" transform="scale(1 1) rotate(0) translate(4 43.7465)">
<title>main</title>
<polygon fill="#ffffff" stroke="transparent" points="-4,4 -4,-43.7465 426.278,-43.7465 426.278,4 -4,4"/>
<!-- GitHub -->
<g id="node1" class="node">
<title>GitHub</title>
<ellipse fill="none" stroke="#000000" cx="37.0467" cy="-21.7465" rx="37.0935" ry="18"/>
<text text-anchor="middle" x="37.0467" y="-18.0465" font-family="Times,serif" font-size="14.00" fill="#000000">GitHub</text>
</g>
<!-- Jenkins -->
<g id="node2" class="node">
<title>Jenkins</title>
<ellipse fill="none" stroke="#000000" cx="173.1401" cy="-21.7465" rx="37.0935" ry="18"/>
<text text-anchor="middle" x="173.1401" y="-18.0465" font-family="Times,serif" font-size="14.00" fill="#000000">Jenkins</text>
</g>
<!-- GitHub&#45;&gt;Jenkins -->
<g id="edge1" class="edge">
<title>GitHub&#45;&gt;Jenkins</title>
<path fill="none" stroke="#000000" d="M74.2348,-21.7465C90.1373,-21.7465 108.8925,-21.7465 125.7718,-21.7465"/>
<polygon fill="#000000" stroke="#000000" points="125.997,-25.2466 135.997,-21.7465 125.9969,-18.2466 125.997,-25.2466"/>
<text text-anchor="middle" x="105.0934" y="-25.5465" font-family="Times,serif" font-size="14.00" fill="#000000">code</text>
</g>
<!-- Artifactory -->
<g id="node3" class="node">
<title>Artifactory</title>
<ellipse fill="none" stroke="#000000" cx="372.2324" cy="-21.7465" rx="50.0912" ry="18"/>
<text text-anchor="middle" x="372.2324" y="-18.0465" font-family="Times,serif" font-size="14.00" fill="#000000">Artifactory</text>
</g>
<!-- Jenkins&#45;&gt;Artifactory -->
<g id="edge3" class="edge">
<title>Jenkins&#45;&gt;Artifactory</title>
<path fill="none" stroke="#000000" d="M210.5879,-21.7465C239.1705,-21.7465 279.1256,-21.7465 312.1601,-21.7465"/>
<polygon fill="#000000" stroke="#000000" points="312.1698,-25.2466 322.1697,-21.7465 312.1697,-18.2466 312.1698,-25.2466"/>
<text text-anchor="middle" x="266.1869" y="-25.5465" font-family="Times,serif" font-size="14.00" fill="#000000">docker&#45;image</text>
</g>
<!-- Artifactory&#45;&gt;Jenkins -->
<g id="edge2" class="edge">
<title>Artifactory&#45;&gt;Jenkins</title>
<path fill="none" stroke="#000000" d="M334.4302,-9.8945C324.6759,-7.3497 314.1234,-5.0385 304.1869,-3.7465 270.691,.6089 261.5438,1.5688 228.1869,-3.7465 222.7877,-4.6068 217.1988,-5.9137 211.7442,-7.4387"/>
<polygon fill="#000000" stroke="#000000" points="210.6837,-4.1029 202.1411,-10.3699 212.7273,-10.798 210.6837,-4.1029"/>
<text text-anchor="middle" x="266.1869" y="-7.5465" font-family="Times,serif" font-size="14.00" fill="#000000">jar&#45;file</text>
</g>
</g>
</svg>
