<?xml version="1.0" encoding="UTF-8" standalone="no"?>
<!DOCTYPE svg PUBLIC "-//W3C//DTD SVG 1.1//EN"
 "http://www.w3.org/Graphics/SVG/1.1/DTD/svg11.dtd">
<!-- Generated by graphviz version 2.40.1 (20161225.0304)
 -->
<!-- Title: main Pages: 1 -->
<svg width="618pt" height="79pt"
 viewBox="0.00 0.00 617.57 79.00" xmlns="http://www.w3.org/2000/svg" xmlns:xlink="http://www.w3.org/1999/xlink">
<g id="graph0" class="graph" transform="scale(1 1) rotate(0) translate(4 75)">
<title>main</title>
<polygon fill="#ffffff" stroke="transparent" points="-4,4 -4,-75 613.5663,-75 613.5663,4 -4,4"/>
<!-- GitHub -->
<g id="node1" class="node">
<title>GitHub</title>
<ellipse fill="none" stroke="#000000" cx="37.0467" cy="-18" rx="37.0935" ry="18"/>
<text text-anchor="middle" x="37.0467" y="-14.3" font-family="Times,serif" font-size="14.00" fill="#000000">GitHub</text>
</g>
<!-- Atlantis -->
<g id="node2" class="node">
<title>Atlantis</title>
<ellipse fill="none" stroke="#000000" cx="157.44" cy="-18" rx="38.1938" ry="18"/>
<text text-anchor="middle" x="157.44" y="-14.3" font-family="Times,serif" font-size="14.00" fill="#000000">Atlantis</text>
</g>
<!-- GitHub&#45;&gt;Atlantis -->
<g id="edge1" class="edge">
<title>GitHub&#45;&gt;Atlantis</title>
<path fill="none" stroke="#000000" d="M74.151,-18C85.1591,-18 97.3816,-18 108.9966,-18"/>
<polygon fill="#000000" stroke="#000000" points="109.0016,-21.5001 119.0016,-18 109.0015,-14.5001 109.0016,-21.5001"/>
<text text-anchor="middle" x="96.5934" y="-21.8" font-family="Times,serif" font-size="14.00" fill="#000000">tf</text>
</g>
<!-- Artifactory -->
<g id="node3" class="node">
<title>Artifactory</title>
<ellipse fill="none" stroke="#000000" cx="315.8322" cy="-53" rx="50.0912" ry="18"/>
<text text-anchor="middle" x="315.8322" y="-49.3" font-family="Times,serif" font-size="14.00" fill="#000000">Artifactory</text>
</g>
<!-- Atlantis&#45;&gt;Artifactory -->
<g id="edge4" class="edge">
<title>Atlantis&#45;&gt;Artifactory</title>
<path fill="none" stroke="#000000" d="M192.1999,-25.6809C212.9968,-30.2764 239.8385,-36.2076 263.1947,-41.3687"/>
<polygon fill="#000000" stroke="#000000" points="262.4436,-44.7871 272.9633,-43.5272 263.954,-37.9519 262.4436,-44.7871"/>
<text text-anchor="middle" x="230.7866" y="-40.8" font-family="Times,serif" font-size="14.00" fill="#000000">tfstate</text>
</g>
<!-- cloud_provider -->
<g id="node4" class="node">
<title>cloud_provider</title>
<ellipse fill="none" stroke="#000000" cx="545.222" cy="-18" rx="64.189" ry="18"/>
<text text-anchor="middle" x="545.222" y="-14.3" font-family="Times,serif" font-size="14.00" fill="#000000">cloud_provider</text>
</g>
<!-- Atlantis&#45;&gt;cloud_provider -->
<g id="edge3" class="edge">
<title>Atlantis&#45;&gt;cloud_provider</title>
<path fill="none" stroke="#000000" d="M195.5189,-14.9373C216.2753,-13.4198 242.4255,-11.7539 265.7866,-11 335.6481,-8.7456 415.3545,-11.2439 471.7122,-13.8605"/>
<polygon fill="#000000" stroke="#000000" points="471.8006,-17.3686 481.9561,-14.3494 472.1343,-10.3766 471.8006,-17.3686"/>
<text text-anchor="middle" x="315.8322" y="-14.8" font-family="Times,serif" font-size="14.00" fill="#000000">tf, creds</text>
</g>
<!-- Artifactory&#45;&gt;cloud_provider -->
<g id="edge2" class="edge">
<title>Artifactory&#45;&gt;cloud_provider</title>
<path fill="none" stroke="#000000" d="M361.9767,-45.9593C395.3417,-40.8685 440.9315,-33.9125 478.2902,-28.2124"/>
<polygon fill="#000000" stroke="#000000" points="479.2343,-31.6089 488.5919,-26.6405 478.1784,-24.689 479.2343,-31.6089"/>
<text text-anchor="middle" x="423.3777" y="-44.8" font-family="Times,serif" font-size="14.00" fill="#000000">images, charts</text>
</g>
</g>
</svg>
