<?xml version="1.0" encoding="UTF-8" standalone="no"?>
<!DOCTYPE svg PUBLIC "-//W3C//DTD SVG 1.1//EN"
 "http://www.w3.org/Graphics/SVG/1.1/DTD/svg11.dtd">
<!-- Generated by graphviz version 2.40.1 (20161225.0304)
 -->
<!-- Title: main Pages: 1 -->
<svg width="909pt" height="284pt"
 viewBox="0.00 0.00 908.99 283.63" xmlns="http://www.w3.org/2000/svg" xmlns:xlink="http://www.w3.org/1999/xlink">
<g id="graph0" class="graph" transform="scale(1 1) rotate(0) translate(4 279.6331)">
<title>main</title>
<polygon fill="#ffffff" stroke="transparent" points="-4,4 -4,-279.6331 904.987,-279.6331 904.987,4 -4,4"/>
<!-- source -->
<g id="node1" class="node">
<title>source</title>
<polygon fill="#add8e6" stroke="#add8e6" points="152.5435,-244.2964 82.7943,-267.3197 13.045,-244.2964 39.6869,-207.0438 125.9017,-207.0438 152.5435,-244.2964"/>
<polygon fill="none" stroke="#add8e6" points="158.9634,-246.4007 82.7943,-271.5432 6.6251,-246.4007 37.6417,-203.0309 127.9468,-203.0309 158.9634,-246.4007"/>
<polygon fill="none" stroke="#add8e6" points="165.3833,-248.505 82.7943,-275.7666 .2052,-248.505 35.5966,-199.0181 129.9919,-199.0181 165.3833,-248.505"/>
<text text-anchor="middle" x="82.7943" y="-237.8" font-family="Times,serif" font-size="14.00" fill="#000000">Исходный </text>
<text text-anchor="middle" x="82.7943" y="-222.8" font-family="Times,serif" font-size="14.00" fill="#000000">сайт</text>
</g>
<!-- service_2 -->
<g id="node3" class="node">
<title>service_2</title>
<polygon fill="none" stroke="#000000" points="264.0912,-252 201.5858,-234 264.0912,-216 326.5966,-234 264.0912,-252"/>
<text text-anchor="middle" x="264.0912" y="-230.3" font-family="Times,serif" font-size="14.00" fill="#000000">service_2</text>
</g>
<!-- source&#45;&gt;service_2 -->
<g id="edge1" class="edge">
<title>source&#45;&gt;service_2</title>
<path fill="none" stroke="#000000" d="M155.2292,-234C167.0532,-234 179.3084,-234 191.1446,-234"/>
<polygon fill="#000000" stroke="#000000" points="191.417,-237.5001 201.4169,-234 191.4169,-230.5001 191.417,-237.5001"/>
</g>
<!-- spectator -->
<g id="node2" class="node">
<title>spectator</title>
<polygon fill="#ffa500" stroke="#ffa500" points="880.0695,-77.5844 802.7932,-90.0716 725.5168,-77.5844 755.0337,-57.3798 850.5526,-57.3798 880.0695,-77.5844"/>
<polygon fill="none" stroke="#ffa500" points="890.6254,-79.9465 802.7932,-94.1393 714.9609,-79.9465 753.7954,-53.3639 851.7909,-53.3639 890.6254,-79.9465"/>
<polygon fill="none" stroke="#ffa500" points="901.1813,-82.3085 802.7932,-98.2071 704.405,-82.3085 752.5571,-49.348 853.0292,-49.348 901.1813,-82.3085"/>
<text text-anchor="middle" x="802.7932" y="-68.3" font-family="Times,serif" font-size="14.00" fill="#000000">Пользователь</text>
</g>
<!-- redis -->
<g id="node5" class="node">
<title>redis</title>
<polygon fill="none" stroke="#000000" points="416.5939,-252 362.5939,-252 362.5939,-216 416.5939,-216 416.5939,-252"/>
<text text-anchor="middle" x="389.5939" y="-230.3" font-family="Times,serif" font-size="14.00" fill="#000000">redis</text>
</g>
<!-- service_2&#45;&gt;redis -->
<g id="edge4" class="edge">
<title>service_2&#45;&gt;redis</title>
<path fill="none" stroke="#000000" d="M304.8383,-227.6333C320.0434,-227.0823 337.2219,-227.1254 352.1187,-227.7623"/>
<polygon fill="#000000" stroke="#000000" points="352.3252,-231.2788 362.5017,-228.3311 352.7082,-224.2893 352.3252,-231.2788"/>
</g>
<!-- kafka -->
<g id="node6" class="node">
<title>kafka</title>
<polygon fill="none" stroke="#000000" points="416.5939,-198 362.5939,-198 362.5939,-162 416.5939,-162 416.5939,-198"/>
<text text-anchor="middle" x="389.5939" y="-176.3" font-family="Times,serif" font-size="14.00" fill="#000000">kafka</text>
</g>
<!-- service_2&#45;&gt;kafka -->
<g id="edge6" class="edge">
<title>service_2&#45;&gt;kafka</title>
<path fill="none" stroke="#000000" d="M289.1869,-223.2021C307.4658,-215.3372 332.5092,-204.5618 353.012,-195.7401"/>
<polygon fill="#000000" stroke="#000000" points="354.5641,-198.8826 362.3665,-191.7151 351.7974,-192.4525 354.5641,-198.8826"/>
</g>
<!-- service_1 -->
<g id="node4" class="node">
<title>service_1</title>
<polygon fill="none" stroke="#000000" points="515.0966,-252 452.5912,-234 515.0966,-216 577.602,-234 515.0966,-252"/>
<text text-anchor="middle" x="515.0966" y="-230.3" font-family="Times,serif" font-size="14.00" fill="#000000">service_1</text>
</g>
<!-- service_1&#45;&gt;redis -->
<g id="edge2" class="edge">
<title>service_1&#45;&gt;redis</title>
<path fill="none" stroke="#000000" d="M474.5634,-240.359C459.3617,-240.916 442.1625,-240.8779 427.234,-240.2447"/>
<polygon fill="#000000" stroke="#000000" points="427.0015,-236.7269 416.8261,-239.6784 426.6212,-243.7166 427.0015,-236.7269"/>
</g>
<!-- redis&#45;&gt;service_2 -->
<g id="edge5" class="edge">
<title>redis&#45;&gt;service_2</title>
<path fill="none" stroke="#000000" d="M362.5017,-239.6689C348.7005,-240.6121 331.4545,-240.9382 315.2721,-240.647"/>
<polygon fill="#000000" stroke="#000000" points="314.9287,-237.1366 304.8383,-240.3667 314.7407,-244.134 314.9287,-237.1366"/>
</g>
<!-- redis&#45;&gt;service_1 -->
<g id="edge3" class="edge">
<title>redis&#45;&gt;service_1</title>
<path fill="none" stroke="#000000" d="M416.8261,-228.3216C430.6645,-227.3816 447.9392,-227.06 464.1285,-227.3569"/>
<polygon fill="#000000" stroke="#000000" points="464.4718,-230.8675 474.5634,-227.641 464.6624,-223.8701 464.4718,-230.8675"/>
</g>
<!-- service_3 -->
<g id="node7" class="node">
<title>service_3</title>
<polygon fill="none" stroke="#000000" points="515.0966,-198 452.5912,-180 515.0966,-162 577.602,-180 515.0966,-198"/>
<text text-anchor="middle" x="515.0966" y="-176.3" font-family="Times,serif" font-size="14.00" fill="#000000">service_3</text>
</g>
<!-- kafka&#45;&gt;service_3 -->
<g id="edge8" class="edge">
<title>kafka&#45;&gt;service_3</title>
<path fill="none" stroke="#000000" d="M416.8261,-174.3216C430.6645,-173.3816 447.9392,-173.06 464.1285,-173.3569"/>
<polygon fill="#000000" stroke="#000000" points="464.4718,-176.8675 474.5634,-173.641 464.6624,-169.8701 464.4718,-176.8675"/>
</g>
<!-- odds_api -->
<g id="node8" class="node">
<title>odds_api</title>
<polygon fill="none" stroke="#000000" points="515.0966,-144 455.1051,-126 515.0966,-108 575.088,-126 515.0966,-144"/>
<text text-anchor="middle" x="515.0966" y="-122.3" font-family="Times,serif" font-size="14.00" fill="#000000">odds_api</text>
</g>
<!-- kafka&#45;&gt;odds_api -->
<g id="edge9" class="edge">
<title>kafka&#45;&gt;odds_api</title>
<path fill="none" stroke="#000000" d="M416.8261,-168.2828C435.5364,-160.2324 460.5283,-149.4791 480.6262,-140.8316"/>
<polygon fill="#000000" stroke="#000000" points="482.2478,-143.9441 490.0503,-136.7767 479.4811,-137.5141 482.2478,-143.9441"/>
</g>
<!-- service_3&#45;&gt;kafka -->
<g id="edge7" class="edge">
<title>service_3&#45;&gt;kafka</title>
<path fill="none" stroke="#000000" d="M474.5634,-186.359C459.3617,-186.916 442.1625,-186.8779 427.234,-186.2447"/>
<polygon fill="#000000" stroke="#000000" points="427.0015,-182.7269 416.8261,-185.6784 426.6212,-189.7166 427.0015,-182.7269"/>
</g>
<!-- ingress -->
<g id="node9" class="node">
<title>ingress</title>
<polygon fill="none" stroke="#000000" points="668.5993,-90 613.5993,-90 613.5993,-54 668.5993,-54 668.5993,-90"/>
<text text-anchor="middle" x="641.0993" y="-68.3" font-family="Times,serif" font-size="14.00" fill="#000000">ingress</text>
</g>
<!-- odds_api&#45;&gt;ingress -->
<g id="edge10" class="edge">
<title>odds_api&#45;&gt;ingress</title>
<path fill="none" stroke="#000000" d="M539.9907,-115.3313C558.1937,-107.5302 583.1953,-96.8155 603.7822,-87.9927"/>
<polygon fill="#000000" stroke="#000000" points="605.3737,-91.1186 613.1865,-83.9624 602.6163,-84.6845 605.3737,-91.1186"/>
</g>
<!-- ingress&#45;&gt;spectator -->
<g id="edge11" class="edge">
<title>ingress&#45;&gt;spectator</title>
<path fill="none" stroke="#000000" d="M668.8955,-72C680.4136,-72 694.5039,-72 709.1696,-72"/>
<polygon fill="#000000" stroke="#000000" points="709.3903,-75.5001 719.3902,-72 709.3902,-68.5001 709.3903,-75.5001"/>
</g>
<!-- logs -->
<g id="node10" class="node">
<title>logs</title>
<polygon fill="none" stroke="#000000" points="542.0966,-90 488.0966,-90 488.0966,-54 542.0966,-54 542.0966,-90"/>
<text text-anchor="middle" x="515.0966" y="-68.3" font-family="Times,serif" font-size="14.00" fill="#000000">logs</text>
</g>
<!-- logs&#45;&gt;ingress -->
<g id="edge12" class="edge">
<title>logs&#45;&gt;ingress</title>
<path fill="none" stroke="#000000" d="M542.1273,-72C559.9031,-72 583.4243,-72 603.0764,-72"/>
<polygon fill="#000000" stroke="#000000" points="603.2415,-75.5001 613.2415,-72 603.2414,-68.5001 603.2415,-75.5001"/>
</g>
<!-- metrics -->
<g id="node11" class="node">
<title>metrics</title>
<polygon fill="none" stroke="#000000" points="543.5966,-36 486.5966,-36 486.5966,0 543.5966,0 543.5966,-36"/>
<text text-anchor="middle" x="515.0966" y="-14.3" font-family="Times,serif" font-size="14.00" fill="#000000">metrics</text>
</g>
<!-- metrics&#45;&gt;ingress -->
<g id="edge13" class="edge">
<title>metrics&#45;&gt;ingress</title>
<path fill="none" stroke="#000000" d="M543.6886,-30.2534C561.5777,-37.9201 584.8062,-47.8749 604.0931,-56.1406"/>
<polygon fill="#000000" stroke="#000000" points="602.9162,-59.444 613.4864,-60.1662 605.6736,-53.01 602.9162,-59.444"/>
</g>
</g>
</svg>
