<?xml version="1.0" encoding="UTF-8" standalone="no"?>
<!DOCTYPE svg PUBLIC "-//W3C//DTD SVG 1.1//EN"
 "http://www.w3.org/Graphics/SVG/1.1/DTD/svg11.dtd">
<!-- Generated by graphviz version 2.40.1 (20161225.0304)
 -->
<!-- Title: main Pages: 1 -->
<svg width="1352pt" height="318pt"
 viewBox="0.00 0.00 1351.98 318.00" xmlns="http://www.w3.org/2000/svg" xmlns:xlink="http://www.w3.org/1999/xlink">
<g id="graph0" class="graph" transform="scale(1 1) rotate(0) translate(4 314)">
<title>main</title>
<polygon fill="#ffffff" stroke="transparent" points="-4,4 -4,-314 1347.9802,-314 1347.9802,4 -4,4"/>
<!-- source -->
<g id="node1" class="node">
<title>source</title>
<polygon fill="#add8e6" stroke="#add8e6" points="152.5435,-167.2964 82.7943,-190.3197 13.045,-167.2964 39.6869,-130.0438 125.9017,-130.0438 152.5435,-167.2964"/>
<polygon fill="none" stroke="#add8e6" points="158.9634,-169.4007 82.7943,-194.5432 6.6251,-169.4007 37.6417,-126.0309 127.9468,-126.0309 158.9634,-169.4007"/>
<polygon fill="none" stroke="#add8e6" points="165.3833,-171.505 82.7943,-198.7666 .2052,-171.505 35.5966,-122.0181 129.9919,-122.0181 165.3833,-171.505"/>
<text text-anchor="middle" x="82.7943" y="-160.8" font-family="Times,serif" font-size="14.00" fill="#000000">Исходный </text>
<text text-anchor="middle" x="82.7943" y="-145.8" font-family="Times,serif" font-size="14.00" fill="#000000">сайт</text>
</g>
<!-- bootstrapper -->
<g id="node3" class="node">
<title>bootstrapper</title>
<polygon fill="none" stroke="#000000" points="278.7977,-175 201.3787,-157 278.7977,-139 356.2167,-157 278.7977,-175"/>
<text text-anchor="middle" x="278.7977" y="-153.3" font-family="Times,serif" font-size="14.00" fill="#000000">bootstrapper</text>
</g>
<!-- source&#45;&gt;bootstrapper -->
<g id="edge1" class="edge">
<title>source&#45;&gt;bootstrapper</title>
<path fill="none" stroke="#000000" d="M155.2218,-157C166.9789,-157 179.2639,-157 191.3333,-157"/>
<polygon fill="#000000" stroke="#000000" points="191.4046,-160.5001 201.4045,-157 191.4045,-153.5001 191.4046,-160.5001"/>
</g>
<!-- spectator -->
<g id="node2" class="node">
<title>spectator</title>
<polygon fill="#ffa500" stroke="#ffa500" points="1323.0627,-158.5844 1245.7863,-171.0716 1168.5099,-158.5844 1198.0269,-138.3798 1293.5457,-138.3798 1323.0627,-158.5844"/>
<polygon fill="none" stroke="#ffa500" points="1333.6186,-160.9465 1245.7863,-175.1393 1157.954,-160.9465 1196.7886,-134.3639 1294.784,-134.3639 1333.6186,-160.9465"/>
<polygon fill="none" stroke="#ffa500" points="1344.1744,-163.3085 1245.7863,-179.2071 1147.3982,-163.3085 1195.5502,-130.348 1296.0224,-130.348 1344.1744,-163.3085"/>
<text text-anchor="middle" x="1245.7863" y="-149.3" font-family="Times,serif" font-size="14.00" fill="#000000">Пользователь</text>
</g>
<!-- redis -->
<g id="node4" class="node">
<title>redis</title>
<polygon fill="none" stroke="#000000" points="446.0069,-175 392.0069,-175 392.0069,-139 446.0069,-139 446.0069,-175"/>
<text text-anchor="middle" x="419.0069" y="-153.3" font-family="Times,serif" font-size="14.00" fill="#000000">redis</text>
</g>
<!-- bootstrapper&#45;&gt;redis -->
<g id="edge2" class="edge">
<title>bootstrapper&#45;&gt;redis</title>
<path fill="none" stroke="#000000" d="M356.284,-157C365.1793,-157 373.9144,-157 381.9076,-157"/>
<polygon fill="#000000" stroke="#000000" points="381.9395,-160.5001 391.9394,-157 381.9394,-153.5001 381.9395,-160.5001"/>
</g>
<!-- logs -->
<g id="node9" class="node">
<title>logs</title>
<polygon fill="none" stroke="#000000" points="998.0924,-198 944.0924,-198 944.0924,-162 998.0924,-162 998.0924,-198"/>
<text text-anchor="middle" x="971.0924" y="-176.3" font-family="Times,serif" font-size="14.00" fill="#000000">logs</text>
</g>
<!-- bootstrapper&#45;&gt;logs -->
<g id="edge9" class="edge">
<title>bootstrapper&#45;&gt;logs</title>
<path fill="none" stroke="#000000" d="M299.0353,-143.4484C344.0565,-114.6562 456.7669,-50 561.0545,-50 561.0545,-50 561.0545,-50 703.102,-50 784.6473,-50 819.9341,-20.6408 885.5924,-69 918.2967,-93.0876 894.2595,-122.9552 921.5924,-153 925.4213,-157.2088 930.0634,-160.8983 934.9519,-164.0873"/>
<polygon fill="#000000" stroke="#000000" points="933.4915,-167.2869 943.895,-169.2911 937.012,-161.2366 933.4915,-167.2869"/>
</g>
<!-- metrics -->
<g id="node10" class="node">
<title>metrics</title>
<polygon fill="none" stroke="#000000" points="999.5924,-290 942.5924,-290 942.5924,-254 999.5924,-254 999.5924,-290"/>
<text text-anchor="middle" x="971.0924" y="-268.3" font-family="Times,serif" font-size="14.00" fill="#000000">metrics</text>
</g>
<!-- bootstrapper&#45;&gt;metrics -->
<g id="edge14" class="edge">
<title>bootstrapper&#45;&gt;metrics</title>
<path fill="none" stroke="#000000" d="M293.1804,-171.6703C332.3394,-209.965 445.6744,-310 561.0545,-310 561.0545,-310 561.0545,-310 703.102,-310 785.484,-310 880.7129,-292.1791 932.5585,-280.9453"/>
<polygon fill="#000000" stroke="#000000" points="933.3189,-284.3618 942.3325,-278.7936 931.8138,-277.5255 933.3189,-284.3618"/>
</g>
<!-- puppetheatre -->
<g id="node5" class="node">
<title>puppetheatre</title>
<polygon fill="none" stroke="#000000" points="561.0545,-175 481.9594,-157 561.0545,-139 640.1495,-157 561.0545,-175"/>
<text text-anchor="middle" x="561.0545" y="-153.3" font-family="Times,serif" font-size="14.00" fill="#000000">puppetheatre</text>
</g>
<!-- redis&#45;&gt;puppetheatre -->
<g id="edge4" class="edge">
<title>redis&#45;&gt;puppetheatre</title>
<path fill="none" stroke="#000000" d="M446.0593,-151.5652C461.4117,-150.4986 481.2831,-150.0808 500.1766,-150.3116"/>
<polygon fill="#000000" stroke="#000000" points="500.1732,-153.812 510.2367,-150.4989 500.3036,-146.8133 500.1732,-153.812"/>
</g>
<!-- puppetheatre&#45;&gt;redis -->
<g id="edge3" class="edge">
<title>puppetheatre&#45;&gt;redis</title>
<path fill="none" stroke="#000000" d="M510.2367,-163.5011C492.4647,-163.9501 472.8516,-163.7916 456.3794,-163.0256"/>
<polygon fill="#000000" stroke="#000000" points="456.2431,-159.5122 446.0593,-162.4348 455.8429,-166.5007 456.2431,-159.5122"/>
</g>
<!-- kafka -->
<g id="node6" class="node">
<title>kafka</title>
<polygon fill="none" stroke="#000000" points="730.102,-152 676.102,-152 676.102,-116 730.102,-116 730.102,-152"/>
<text text-anchor="middle" x="703.102" y="-130.3" font-family="Times,serif" font-size="14.00" fill="#000000">kafka</text>
</g>
<!-- puppetheatre&#45;&gt;kafka -->
<g id="edge5" class="edge">
<title>puppetheatre&#45;&gt;kafka</title>
<path fill="none" stroke="#000000" d="M607.5661,-149.4689C626.5046,-146.4025 648.0935,-142.9068 665.9515,-140.0153"/>
<polygon fill="#000000" stroke="#000000" points="666.6747,-143.4439 675.9867,-138.3904 665.5558,-136.5339 666.6747,-143.4439"/>
</g>
<!-- puppetheatre&#45;&gt;logs -->
<g id="edge10" class="edge">
<title>puppetheatre&#45;&gt;logs</title>
<path fill="none" stroke="#000000" d="M624.673,-160.5685C711.3275,-165.4292 863.6915,-173.9756 933.8319,-177.91"/>
<polygon fill="#000000" stroke="#000000" points="933.7834,-181.4127 943.9637,-178.4783 934.1755,-174.4236 933.7834,-181.4127"/>
</g>
<!-- sop -->
<g id="node7" class="node">
<title>sop</title>
<polygon fill="none" stroke="#000000" points="825.8472,-114 793.5053,-96 825.8472,-78 858.1891,-96 825.8472,-114"/>
<text text-anchor="middle" x="825.8472" y="-92.3" font-family="Times,serif" font-size="14.00" fill="#000000">sop</text>
</g>
<!-- kafka&#45;&gt;sop -->
<g id="edge7" class="edge">
<title>kafka&#45;&gt;sop</title>
<path fill="none" stroke="#000000" d="M730.3431,-119.8465C747.4655,-113.3883 769.785,-106.2966 788.5411,-101.2836"/>
<polygon fill="#000000" stroke="#000000" points="789.4372,-104.6671 798.2578,-98.7979 787.7023,-97.8855 789.4372,-104.6671"/>
</g>
<!-- odds_api -->
<g id="node8" class="node">
<title>odds_api</title>
<polygon fill="none" stroke="#000000" points="825.8472,-244 765.8557,-226 825.8472,-208 885.8387,-226 825.8472,-244"/>
<text text-anchor="middle" x="825.8472" y="-222.3" font-family="Times,serif" font-size="14.00" fill="#000000">odds_api</text>
</g>
<!-- kafka&#45;&gt;odds_api -->
<g id="edge8" class="edge">
<title>kafka&#45;&gt;odds_api</title>
<path fill="none" stroke="#000000" d="M727.3525,-152.1762C748.4467,-167.9868 778.9129,-190.8218 800.3627,-206.8989"/>
<polygon fill="#000000" stroke="#000000" points="798.284,-209.7148 808.3851,-212.9118 802.4823,-204.1135 798.284,-209.7148"/>
</g>
<!-- kafka&#45;&gt;logs -->
<g id="edge13" class="edge">
<title>kafka&#45;&gt;logs</title>
<path fill="none" stroke="#000000" d="M730.2731,-138.6639C778.5275,-146.9466 879.2312,-164.2322 933.8828,-173.6131"/>
<polygon fill="#000000" stroke="#000000" points="933.4014,-177.0815 943.8494,-175.3238 934.5856,-170.1824 933.4014,-177.0815"/>
</g>
<!-- kafka&#45;&gt;metrics -->
<g id="edge16" class="edge">
<title>kafka&#45;&gt;metrics</title>
<path fill="none" stroke="#000000" d="M706.9783,-152.1643C713.7966,-179.2068 730.7062,-229.3947 766.102,-253 815.9284,-286.2289 888.3533,-284.0979 932.445,-278.6603"/>
<polygon fill="#000000" stroke="#000000" points="933.0353,-282.1125 942.4767,-277.3053 932.0982,-275.1755 933.0353,-282.1125"/>
</g>
<!-- sop&#45;&gt;kafka -->
<g id="edge6" class="edge">
<title>sop&#45;&gt;kafka</title>
<path fill="none" stroke="#000000" d="M810.2937,-105.4892C792.7983,-112.9602 763.7667,-122.4773 740.3265,-128.7382"/>
<polygon fill="#000000" stroke="#000000" points="739.1667,-125.422 730.3431,-131.2866 740.8981,-132.2045 739.1667,-125.422"/>
</g>
<!-- sop&#45;&gt;logs -->
<g id="edge11" class="edge">
<title>sop&#45;&gt;logs</title>
<path fill="none" stroke="#000000" d="M843.1377,-104.5912C855.2284,-110.76 871.6435,-119.4602 885.5924,-128 902.2058,-138.1711 905.0179,-142.7657 921.5924,-153 925.9574,-155.6953 930.6097,-158.4185 935.2487,-161.0453"/>
<polygon fill="#000000" stroke="#000000" points="933.6324,-164.1512 944.0742,-165.9453 937.0303,-158.0312 933.6324,-164.1512"/>
</g>
<!-- odds_api&#45;&gt;logs -->
<g id="edge12" class="edge">
<title>odds_api&#45;&gt;logs</title>
<path fill="none" stroke="#000000" d="M855.2397,-216.6912C877.9705,-209.4923 909.5851,-199.4797 934.0472,-191.7324"/>
<polygon fill="#000000" stroke="#000000" points="935.2324,-195.0285 943.7089,-188.6725 933.1188,-188.3552 935.2324,-195.0285"/>
</g>
<!-- odds_api&#45;&gt;metrics -->
<g id="edge15" class="edge">
<title>odds_api&#45;&gt;metrics</title>
<path fill="none" stroke="#000000" d="M855.2397,-235.3088C877.5334,-242.3693 908.3724,-252.1362 932.6281,-259.8181"/>
<polygon fill="#000000" stroke="#000000" points="931.6492,-263.1794 942.2393,-262.862 933.7627,-256.5061 931.6492,-263.1794"/>
</g>
<!-- ingress -->
<g id="node11" class="node">
<title>ingress</title>
<polygon fill="none" stroke="#000000" points="1111.5924,-171 1056.5924,-171 1056.5924,-135 1111.5924,-135 1111.5924,-171"/>
<text text-anchor="middle" x="1084.0924" y="-149.3" font-family="Times,serif" font-size="14.00" fill="#000000">ingress</text>
</g>
<!-- odds_api&#45;&gt;ingress -->
<g id="edge17" class="edge">
<title>odds_api&#45;&gt;ingress</title>
<path fill="none" stroke="#000000" d="M875.4583,-229.1791C916.0563,-229.9303 974.1479,-226.6906 1020.5924,-207 1035.8563,-200.5287 1050.1755,-189.0351 1061.3388,-178.3101"/>
<polygon fill="#000000" stroke="#000000" points="1063.9621,-180.6359 1068.5358,-171.0791 1059.0006,-175.6978 1063.9621,-180.6359"/>
</g>
<!-- logs&#45;&gt;ingress -->
<g id="edge18" class="edge">
<title>logs&#45;&gt;ingress</title>
<path fill="none" stroke="#000000" d="M998.1587,-173.5328C1012.6201,-170.0775 1030.6508,-165.7692 1046.4565,-161.9927"/>
<polygon fill="#000000" stroke="#000000" points="1047.5491,-165.3302 1056.4619,-159.602 1045.9223,-158.5218 1047.5491,-165.3302"/>
</g>
<!-- metrics&#45;&gt;ingress -->
<g id="edge19" class="edge">
<title>metrics&#45;&gt;ingress</title>
<path fill="none" stroke="#000000" d="M999.6405,-256.07C1006.8675,-251.3784 1014.3447,-245.9037 1020.5924,-240 1039.4283,-222.2014 1056.4799,-198.1771 1068.159,-179.8837"/>
<polygon fill="#000000" stroke="#000000" points="1071.2778,-181.4971 1073.6012,-171.1601 1065.3387,-177.792 1071.2778,-181.4971"/>
</g>
<!-- ingress&#45;&gt;spectator -->
<g id="edge20" class="edge">
<title>ingress&#45;&gt;spectator</title>
<path fill="none" stroke="#000000" d="M1111.8886,-153C1123.4068,-153 1137.497,-153 1152.1628,-153"/>
<polygon fill="#000000" stroke="#000000" points="1152.3834,-156.5001 1162.3834,-153 1152.3833,-149.5001 1152.3834,-156.5001"/>
</g>
<!-- dns_manager -->
<g id="node12" class="node">
<title>dns_manager</title>
<polygon fill="none" stroke="#000000" points="1015.5924,-144 926.5924,-144 926.5924,-108 1015.5924,-108 1015.5924,-144"/>
<text text-anchor="middle" x="971.0924" y="-122.3" font-family="Times,serif" font-size="14.00" fill="#000000">dns_manager</text>
</g>
<!-- dns_manager&#45;&gt;ingress -->
<g id="edge22" class="edge">
<title>dns_manager&#45;&gt;ingress</title>
<path fill="none" stroke="#000000" d="M1015.753,-136.6711C1025.9175,-139.0998 1036.6172,-141.6564 1046.455,-144.007"/>
<polygon fill="#000000" stroke="#000000" points="1045.7968,-147.4482 1056.3365,-146.368 1047.4237,-140.6398 1045.7968,-147.4482"/>
</g>
<!-- cert_manager -->
<g id="node13" class="node">
<title>cert_manager</title>
<polygon fill="none" stroke="#000000" points="1016.5924,-90 925.5924,-90 925.5924,-54 1016.5924,-54 1016.5924,-90"/>
<text text-anchor="middle" x="971.0924" y="-68.3" font-family="Times,serif" font-size="14.00" fill="#000000">cert_manager</text>
</g>
<!-- cert_manager&#45;&gt;ingress -->
<g id="edge23" class="edge">
<title>cert_manager&#45;&gt;ingress</title>
<path fill="none" stroke="#000000" d="M1006.2499,-90.0048C1011.1643,-92.8572 1016.0744,-95.8955 1020.5924,-99 1033.2614,-107.7052 1046.3491,-118.483 1057.3271,-128.1147"/>
<polygon fill="#000000" stroke="#000000" points="1055.1191,-130.8353 1064.9117,-134.8796 1059.7785,-125.6113 1055.1191,-130.8353"/>
</g>
<!-- load_balancing -->
<g id="node14" class="node">
<title>load_balancing</title>
<polygon fill="none" stroke="#000000" points="1020.5924,-36 921.5924,-36 921.5924,0 1020.5924,0 1020.5924,-36"/>
<text text-anchor="middle" x="971.0924" y="-14.3" font-family="Times,serif" font-size="14.00" fill="#000000">load_balancing</text>
</g>
<!-- load_balancing&#45;&gt;ingress -->
<g id="edge21" class="edge">
<title>load_balancing&#45;&gt;ingress</title>
<path fill="none" stroke="#000000" d="M1009.3392,-36.0349C1013.367,-38.7393 1017.2169,-41.7314 1020.5924,-45 1044.3824,-68.0365 1062.3352,-101.8718 1072.9794,-125.5131"/>
<polygon fill="#000000" stroke="#000000" points="1069.8905,-127.1865 1077.0895,-134.9598 1076.3093,-124.3937 1069.8905,-127.1865"/>
</g>
</g>
</svg>
