<?xml version="1.0" encoding="UTF-8" standalone="no"?>
<!DOCTYPE svg PUBLIC "-//W3C//DTD SVG 1.1//EN"
 "http://www.w3.org/Graphics/SVG/1.1/DTD/svg11.dtd">
<!-- Generated by graphviz version 2.40.1 (20161225.0304)
 -->
<!-- Title: main Pages: 1 -->
<svg width="988pt" height="284pt"
 viewBox="0.00 0.00 987.98 283.63" xmlns="http://www.w3.org/2000/svg" xmlns:xlink="http://www.w3.org/1999/xlink">
<g id="graph0" class="graph" transform="scale(1 1) rotate(0) translate(4 279.6331)">
<title>main</title>
<polygon fill="#ffffff" stroke="transparent" points="-4,4 -4,-279.6331 983.9834,-279.6331 983.9834,4 -4,4"/>
<!-- source -->
<g id="node1" class="node">
<title>source</title>
<polygon fill="#add8e6" stroke="#add8e6" points="152.5435,-244.2964 82.7943,-267.3197 13.045,-244.2964 39.6869,-207.0438 125.9017,-207.0438 152.5435,-244.2964"/>
<polygon fill="none" stroke="#add8e6" points="158.9634,-246.4007 82.7943,-271.5432 6.6251,-246.4007 37.6417,-203.0309 127.9468,-203.0309 158.9634,-246.4007"/>
<polygon fill="none" stroke="#add8e6" points="165.3833,-248.505 82.7943,-275.7666 .2052,-248.505 35.5966,-199.0181 129.9919,-199.0181 165.3833,-248.505"/>
<text text-anchor="middle" x="82.7943" y="-237.8" font-family="Times,serif" font-size="14.00" fill="#000000">Исходный </text>
<text text-anchor="middle" x="82.7943" y="-222.8" font-family="Times,serif" font-size="14.00" fill="#000000">сайт</text>
</g>
<!-- puppetheatre -->
<g id="node3" class="node">
<title>puppetheatre</title>
<polygon fill="none" stroke="#000000" points="280.636,-252 201.541,-234 280.636,-216 359.7311,-234 280.636,-252"/>
<text text-anchor="middle" x="280.636" y="-230.3" font-family="Times,serif" font-size="14.00" fill="#000000">puppetheatre</text>
</g>
<!-- source&#45;&gt;puppetheatre -->
<g id="edge1" class="edge">
<title>source&#45;&gt;puppetheatre</title>
<path fill="none" stroke="#000000" d="M155.0595,-234C166.8739,-234 179.2366,-234 191.4019,-234"/>
<polygon fill="#000000" stroke="#000000" points="191.558,-237.5001 201.558,-234 191.558,-230.5001 191.558,-237.5001"/>
</g>
<!-- spectator -->
<g id="node2" class="node">
<title>spectator</title>
<polygon fill="#ffa500" stroke="#ffa500" points="959.0659,-77.5844 881.7895,-90.0716 804.5131,-77.5844 834.0301,-57.3798 929.5489,-57.3798 959.0659,-77.5844"/>
<polygon fill="none" stroke="#ffa500" points="969.6218,-79.9465 881.7895,-94.1393 793.9573,-79.9465 832.7918,-53.3639 930.7873,-53.3639 969.6218,-79.9465"/>
<polygon fill="none" stroke="#ffa500" points="980.1776,-82.3085 881.7895,-98.2071 783.4014,-82.3085 831.5535,-49.348 932.0256,-49.348 980.1776,-82.3085"/>
<text text-anchor="middle" x="881.7895" y="-68.3" font-family="Times,serif" font-size="14.00" fill="#000000">Пользователь</text>
</g>
<!-- redis -->
<g id="node5" class="node">
<title>redis</title>
<polygon fill="none" stroke="#000000" points="449.6836,-252 395.6836,-252 395.6836,-216 449.6836,-216 449.6836,-252"/>
<text text-anchor="middle" x="422.6836" y="-230.3" font-family="Times,serif" font-size="14.00" fill="#000000">redis</text>
</g>
<!-- puppetheatre&#45;&gt;redis -->
<g id="edge4" class="edge">
<title>puppetheatre&#45;&gt;redis</title>
<path fill="none" stroke="#000000" d="M331.5172,-227.4973C349.2797,-227.0501 368.8744,-227.2094 385.3311,-227.9753"/>
<polygon fill="#000000" stroke="#000000" points="385.4578,-231.4882 395.6416,-228.5659 385.8582,-224.4997 385.4578,-231.4882"/>
</g>
<!-- kafka -->
<g id="node6" class="node">
<title>kafka</title>
<polygon fill="none" stroke="#000000" points="449.6836,-198 395.6836,-198 395.6836,-162 449.6836,-162 449.6836,-198"/>
<text text-anchor="middle" x="422.6836" y="-176.3" font-family="Times,serif" font-size="14.00" fill="#000000">kafka</text>
</g>
<!-- puppetheatre&#45;&gt;kafka -->
<g id="edge6" class="edge">
<title>puppetheatre&#45;&gt;kafka</title>
<path fill="none" stroke="#000000" d="M310.4139,-222.6798C332.3386,-214.3451 362.2881,-202.9596 385.7399,-194.0443"/>
<polygon fill="#000000" stroke="#000000" points="387.2469,-197.2158 395.3506,-190.3908 384.7595,-190.6727 387.2469,-197.2158"/>
</g>
<!-- bootstrapper -->
<g id="node4" class="node">
<title>bootstrapper</title>
<polygon fill="none" stroke="#000000" points="562.8928,-252 485.4738,-234 562.8928,-216 640.3118,-234 562.8928,-252"/>
<text text-anchor="middle" x="562.8928" y="-230.3" font-family="Times,serif" font-size="14.00" fill="#000000">bootstrapper</text>
</g>
<!-- bootstrapper&#45;&gt;redis -->
<g id="edge2" class="edge">
<title>bootstrapper&#45;&gt;redis</title>
<path fill="none" stroke="#000000" d="M513.2383,-240.488C495.7016,-240.9495 476.2938,-240.8014 459.9581,-240.0437"/>
<polygon fill="#000000" stroke="#000000" points="459.9009,-236.5348 449.7173,-239.458 459.5011,-243.5233 459.9009,-236.5348"/>
</g>
<!-- redis&#45;&gt;puppetheatre -->
<g id="edge5" class="edge">
<title>redis&#45;&gt;puppetheatre</title>
<path fill="none" stroke="#000000" d="M395.6416,-239.4341C380.3033,-240.5001 360.4518,-240.9184 341.5712,-240.6891"/>
<polygon fill="#000000" stroke="#000000" points="341.5804,-237.1888 331.5172,-240.5027 341.4506,-244.1876 341.5804,-237.1888"/>
</g>
<!-- redis&#45;&gt;bootstrapper -->
<g id="edge3" class="edge">
<title>redis&#45;&gt;bootstrapper</title>
<path fill="none" stroke="#000000" d="M449.7173,-228.542C464.8916,-227.488 484.4614,-227.0789 503.0478,-227.3147"/>
<polygon fill="#000000" stroke="#000000" points="503.1723,-230.8176 513.2383,-227.512 503.3079,-223.8189 503.1723,-230.8176"/>
</g>
<!-- sop -->
<g id="node7" class="node">
<title>sop</title>
<polygon fill="none" stroke="#000000" points="562.8928,-198 530.5509,-180 562.8928,-162 595.2347,-180 562.8928,-198"/>
<text text-anchor="middle" x="562.8928" y="-176.3" font-family="Times,serif" font-size="14.00" fill="#000000">sop</text>
</g>
<!-- kafka&#45;&gt;sop -->
<g id="edge8" class="edge">
<title>kafka&#45;&gt;sop</title>
<path fill="none" stroke="#000000" d="M449.7173,-174.542C472.4538,-172.9627 505.0587,-172.8313 529.4376,-174.1477"/>
<polygon fill="#000000" stroke="#000000" points="529.4513,-177.6563 539.6614,-174.8273 529.9156,-170.6717 529.4513,-177.6563"/>
</g>
<!-- odds_api -->
<g id="node8" class="node">
<title>odds_api</title>
<polygon fill="none" stroke="#000000" points="562.8928,-144 502.9013,-126 562.8928,-108 622.8842,-126 562.8928,-144"/>
<text text-anchor="middle" x="562.8928" y="-122.3" font-family="Times,serif" font-size="14.00" fill="#000000">odds_api</text>
</g>
<!-- kafka&#45;&gt;odds_api -->
<g id="edge9" class="edge">
<title>kafka&#45;&gt;odds_api</title>
<path fill="none" stroke="#000000" d="M449.8048,-167.8947C460.8625,-163.0855 473.8156,-157.612 485.6836,-153 498.2164,-148.1296 512.0409,-143.1683 524.4868,-138.8496"/>
<polygon fill="#000000" stroke="#000000" points="525.8025,-142.0985 534.1217,-135.5379 523.527,-135.4786 525.8025,-142.0985"/>
</g>
<!-- sop&#45;&gt;kafka -->
<g id="edge7" class="edge">
<title>sop&#45;&gt;kafka</title>
<path fill="none" stroke="#000000" d="M539.6614,-185.1727C517.9202,-186.9333 485.0787,-187.22 459.7228,-186.0327"/>
<polygon fill="#000000" stroke="#000000" points="459.9016,-182.5373 449.7173,-185.458 459.5001,-189.5258 459.9016,-182.5373"/>
</g>
<!-- ingress -->
<g id="node9" class="node">
<title>ingress</title>
<ellipse fill="none" stroke="#000000" cx="711.8488" cy="-72" rx="35.9954" ry="18"/>
<text text-anchor="middle" x="711.8488" y="-68.3" font-family="Times,serif" font-size="14.00" fill="#000000">ingress</text>
</g>
<!-- odds_api&#45;&gt;ingress -->
<g id="edge10" class="edge">
<title>odds_api&#45;&gt;ingress</title>
<path fill="none" stroke="#000000" d="M591.1863,-116.2844C605.8184,-111.2147 623.9505,-104.8622 640.102,-99 651.0211,-95.0368 662.8347,-90.6376 673.6634,-86.5603"/>
<polygon fill="#000000" stroke="#000000" points="675.1598,-89.7364 683.2775,-82.928 672.6858,-83.1882 675.1598,-89.7364"/>
</g>
<!-- ingress&#45;&gt;spectator -->
<g id="edge11" class="edge">
<title>ingress&#45;&gt;spectator</title>
<path fill="none" stroke="#000000" d="M747.8889,-72C759.8059,-72 773.6707,-72 787.8727,-72"/>
<polygon fill="#000000" stroke="#000000" points="788.2505,-75.5001 798.2505,-72 788.2505,-68.5001 788.2505,-75.5001"/>
</g>
<!-- logs -->
<g id="node10" class="node">
<title>logs</title>
<polygon fill="none" stroke="#000000" points="589.8928,-90 535.8928,-90 535.8928,-54 589.8928,-54 589.8928,-90"/>
<text text-anchor="middle" x="562.8928" y="-68.3" font-family="Times,serif" font-size="14.00" fill="#000000">logs</text>
</g>
<!-- logs&#45;&gt;ingress -->
<g id="edge12" class="edge">
<title>logs&#45;&gt;ingress</title>
<path fill="none" stroke="#000000" d="M590.2136,-72C611.3053,-72 640.9687,-72 665.7212,-72"/>
<polygon fill="#000000" stroke="#000000" points="665.9895,-75.5001 675.9895,-72 665.9894,-68.5001 665.9895,-75.5001"/>
</g>
<!-- metrics -->
<g id="node11" class="node">
<title>metrics</title>
<polygon fill="none" stroke="#000000" points="591.3928,-36 534.3928,-36 534.3928,0 591.3928,0 591.3928,-36"/>
<text text-anchor="middle" x="562.8928" y="-14.3" font-family="Times,serif" font-size="14.00" fill="#000000">metrics</text>
</g>
<!-- metrics&#45;&gt;ingress -->
<g id="edge13" class="edge">
<title>metrics&#45;&gt;ingress</title>
<path fill="none" stroke="#000000" d="M591.5497,-27.8416C606.118,-32.8902 624.084,-39.1862 640.102,-45 651.0211,-48.9632 662.8347,-53.3624 673.6634,-57.4397"/>
<polygon fill="#000000" stroke="#000000" points="672.6858,-60.8118 683.2775,-61.072 675.1598,-54.2636 672.6858,-60.8118"/>
</g>
</g>
</svg>
