<?xml version="1.0" encoding="UTF-8" standalone="no"?>
<!DOCTYPE svg PUBLIC "-//W3C//DTD SVG 1.1//EN"
 "http://www.w3.org/Graphics/SVG/1.1/DTD/svg11.dtd">
<!-- Generated by graphviz version 2.40.1 (20161225.0304)
 -->
<!-- Title: main Pages: 1 -->
<svg width="635pt" height="60pt"
 viewBox="0.00 0.00 635.18 60.00" xmlns="http://www.w3.org/2000/svg" xmlns:xlink="http://www.w3.org/1999/xlink">
<g id="graph0" class="graph" transform="scale(1 1) rotate(0) translate(4 56)">
<title>main</title>
<polygon fill="#ffffff" stroke="transparent" points="-4,4 -4,-56 631.1764,-56 631.1764,4 -4,4"/>
<!-- terraform -->
<g id="node1" class="node">
<title>terraform</title>
<polygon fill="#8a2be2" stroke="#8a2be2" points="124.0237,-26 96.6886,-44 42.0184,-44 14.6833,-26 42.0184,-8 96.6886,-8 124.0237,-26"/>
<polygon fill="none" stroke="#8a2be2" points="131.2922,-26 97.8826,-48 40.8243,-48 7.4148,-26 40.8243,-4 97.8826,-4 131.2922,-26"/>
<polygon fill="none" stroke="#8a2be2" points="138.5607,-26 99.0767,-52 39.6302,-52 .1462,-26 39.6302,0 99.0767,0 138.5607,-26"/>
<text text-anchor="middle" x="69.3535" y="-22.3" font-family="Times,serif" font-size="14.00" fill="#000000">Terraform</text>
</g>
<!-- cloud_provider -->
<g id="node2" class="node">
<title>cloud_provider</title>
<ellipse fill="none" stroke="#000000" cx="239.0512" cy="-26" rx="64.189" ry="18"/>
<text text-anchor="middle" x="239.0512" y="-22.3" font-family="Times,serif" font-size="14.00" fill="#000000">cloud_provider</text>
</g>
<!-- terraform&#45;&gt;cloud_provider -->
<g id="edge1" class="edge">
<title>terraform&#45;&gt;cloud_provider</title>
<path fill="none" stroke="#000000" d="M138.8657,-26C147.2602,-26 155.8618,-26 164.3271,-26"/>
<polygon fill="#000000" stroke="#000000" points="164.5621,-29.5001 174.5621,-26 164.5621,-22.5001 164.5621,-29.5001"/>
</g>
<!-- k8s_cluster -->
<g id="node3" class="node">
<title>k8s_cluster</title>
<ellipse fill="none" stroke="#000000" cx="390.091" cy="-26" rx="50.8918" ry="18"/>
<text text-anchor="middle" x="390.091" y="-22.3" font-family="Times,serif" font-size="14.00" fill="#000000">k8s_cluster</text>
</g>
<!-- cloud_provider&#45;&gt;k8s_cluster -->
<g id="edge2" class="edge">
<title>cloud_provider&#45;&gt;k8s_cluster</title>
<path fill="none" stroke="#000000" d="M303.5438,-26C311.9803,-26 320.6043,-26 328.9826,-26"/>
<polygon fill="#000000" stroke="#000000" points="329.0513,-29.5001 339.0513,-26 329.0513,-22.5001 329.0513,-29.5001"/>
</g>
<!-- helm -->
<g id="node4" class="node">
<title>helm</title>
<ellipse fill="none" stroke="#000000" cx="505.384" cy="-26" rx="28.6953" ry="18"/>
<text text-anchor="middle" x="505.384" y="-22.3" font-family="Times,serif" font-size="14.00" fill="#000000">helm</text>
</g>
<!-- k8s_cluster&#45;&gt;helm -->
<g id="edge3" class="edge">
<title>k8s_cluster&#45;&gt;helm</title>
<path fill="none" stroke="#000000" d="M440.9958,-26C449.5636,-26 458.3327,-26 466.5323,-26"/>
<polygon fill="#000000" stroke="#000000" points="466.5557,-29.5001 476.5556,-26 466.5556,-22.5001 466.5557,-29.5001"/>
</g>
<!-- chart -->
<g id="node5" class="node">
<title>chart</title>
<ellipse fill="none" stroke="#000000" cx="598.5789" cy="-26" rx="28.6953" ry="18"/>
<text text-anchor="middle" x="598.5789" y="-22.3" font-family="Times,serif" font-size="14.00" fill="#000000">chart</text>
</g>
<!-- helm&#45;&gt;chart -->
<g id="edge4" class="edge">
<title>helm&#45;&gt;chart</title>
<path fill="none" stroke="#000000" d="M534.106,-26C542.1668,-26 551.0687,-26 559.6181,-26"/>
<polygon fill="#000000" stroke="#000000" points="559.7914,-29.5001 569.7914,-26 559.7913,-22.5001 559.7914,-29.5001"/>
</g>
</g>
</svg>
