<?xml version="1.0" encoding="UTF-8" standalone="no"?>
<!DOCTYPE svg PUBLIC "-//W3C//DTD SVG 1.1//EN"
 "http://www.w3.org/Graphics/SVG/1.1/DTD/svg11.dtd">
<!-- Generated by graphviz version 2.40.1 (20161225.0304)
 -->
<!-- Title: main Pages: 1 -->
<svg width="768pt" height="172pt"
 viewBox="0.00 0.00 768.18 172.00" xmlns="http://www.w3.org/2000/svg" xmlns:xlink="http://www.w3.org/1999/xlink">
<g id="graph0" class="graph" transform="scale(1 1) rotate(0) translate(4 168)">
<title>main</title>
<polygon fill="#ffffff" stroke="transparent" points="-4,4 -4,-168 764.1764,-168 764.1764,4 -4,4"/>
<!-- terraform -->
<g id="node1" class="node">
<title>terraform</title>
<polygon fill="#8a2be2" stroke="#8a2be2" points="124.0237,-72 96.6886,-90 42.0184,-90 14.6833,-72 42.0184,-54 96.6886,-54 124.0237,-72"/>
<polygon fill="none" stroke="#8a2be2" points="131.2922,-72 97.8826,-94 40.8243,-94 7.4148,-72 40.8243,-50 97.8826,-50 131.2922,-72"/>
<polygon fill="none" stroke="#8a2be2" points="138.5607,-72 99.0767,-98 39.6302,-98 .1462,-72 39.6302,-46 99.0767,-46 138.5607,-72"/>
<text text-anchor="middle" x="69.3535" y="-68.3" font-family="Times,serif" font-size="14.00" fill="#000000">Terraform</text>
</g>
<!-- cloud_provider -->
<g id="node2" class="node">
<title>cloud_provider</title>
<ellipse fill="none" stroke="#000000" cx="312.0512" cy="-146" rx="64.189" ry="18"/>
<text text-anchor="middle" x="312.0512" y="-142.3" font-family="Times,serif" font-size="14.00" fill="#000000">cloud_provider</text>
</g>
<!-- terraform&#45;&gt;cloud_provider -->
<g id="edge4" class="edge">
<title>terraform&#45;&gt;cloud_provider</title>
<path fill="none" stroke="#000000" d="M110.1398,-90.9404C124.6418,-97.2279 141.2154,-103.9137 156.707,-109 186.6312,-118.825 220.5888,-127.2164 249.107,-133.5117"/>
<polygon fill="#000000" stroke="#000000" points="248.4367,-136.9477 258.9518,-135.65 249.9225,-130.1072 248.4367,-136.9477"/>
<text text-anchor="middle" x="193.207" y="-131.8" font-family="Times,serif" font-size="14.00" fill="#000000">infrastructure</text>
</g>
<!-- k8s_cluster -->
<g id="node3" class="node">
<title>k8s_cluster</title>
<ellipse fill="none" stroke="#000000" cx="521.091" cy="-95" rx="50.8918" ry="18"/>
<text text-anchor="middle" x="521.091" y="-91.3" font-family="Times,serif" font-size="14.00" fill="#000000">k8s_cluster</text>
</g>
<!-- terraform&#45;&gt;k8s_cluster -->
<g id="edge5" class="edge">
<title>terraform&#45;&gt;k8s_cluster</title>
<path fill="none" stroke="#000000" d="M133.5967,-75.2709C220.7886,-79.7102 375.4603,-87.5853 460.6422,-91.9223"/>
<polygon fill="#000000" stroke="#000000" points="460.5115,-95.4201 470.6766,-92.4332 460.8675,-88.4291 460.5115,-95.4201"/>
<text text-anchor="middle" x="312.0512" y="-90.8" font-family="Times,serif" font-size="14.00" fill="#000000">secrets, tiller</text>
</g>
<!-- helm -->
<g id="node4" class="node">
<title>helm</title>
<ellipse fill="none" stroke="#000000" cx="637.384" cy="-52" rx="28.6953" ry="18"/>
<text text-anchor="middle" x="637.384" y="-48.3" font-family="Times,serif" font-size="14.00" fill="#000000">helm</text>
</g>
<!-- terraform&#45;&gt;helm -->
<g id="edge6" class="edge">
<title>terraform&#45;&gt;helm</title>
<path fill="none" stroke="#000000" d="M135.0687,-69.6862C254.2778,-65.4889 502.6897,-56.7425 598.5153,-53.3685"/>
<polygon fill="#000000" stroke="#000000" points="598.7633,-56.8621 608.6339,-53.0123 598.5169,-49.8664 598.7633,-56.8621"/>
<text text-anchor="middle" x="423.3955" y="-63.8" font-family="Times,serif" font-size="14.00" fill="#000000">datasource</text>
</g>
<!-- chart -->
<g id="node5" class="node">
<title>chart</title>
<ellipse fill="none" stroke="#000000" cx="731.5789" cy="-18" rx="28.6953" ry="18"/>
<text text-anchor="middle" x="731.5789" y="-14.3" font-family="Times,serif" font-size="14.00" fill="#000000">chart</text>
</g>
<!-- terraform&#45;&gt;chart -->
<g id="edge7" class="edge">
<title>terraform&#45;&gt;chart</title>
<path fill="none" stroke="#000000" d="M110.9456,-53.4397C158.5531,-33.9185 239.3486,-6 312.0512,-6 312.0512,-6 312.0512,-6 637.384,-6 656.0873,-6 676.7132,-8.3569 693.8843,-10.9816"/>
<polygon fill="#000000" stroke="#000000" points="693.6504,-14.4892 704.0811,-12.6318 694.7687,-7.5791 693.6504,-14.4892"/>
<text text-anchor="middle" x="521.091" y="-9.8" font-family="Times,serif" font-size="14.00" fill="#000000">values</text>
</g>
<!-- cloud_provider&#45;&gt;k8s_cluster -->
<g id="edge1" class="edge">
<title>cloud_provider&#45;&gt;k8s_cluster</title>
<path fill="none" stroke="#000000" d="M360.798,-134.1071C393.27,-126.1848 435.8992,-115.7845 469.0325,-107.7009"/>
<polygon fill="#000000" stroke="#000000" points="470.1032,-111.0424 478.9887,-105.2718 468.444,-104.2418 470.1032,-111.0424"/>
</g>
<!-- k8s_cluster&#45;&gt;helm -->
<g id="edge2" class="edge">
<title>k8s_cluster&#45;&gt;helm</title>
<path fill="none" stroke="#000000" d="M556.2984,-81.9819C571.0726,-76.519 588.1998,-70.1861 602.8962,-64.7521"/>
<polygon fill="#000000" stroke="#000000" points="604.4579,-67.9063 612.6234,-61.1554 602.0302,-61.3407 604.4579,-67.9063"/>
</g>
<!-- helm&#45;&gt;chart -->
<g id="edge3" class="edge">
<title>helm&#45;&gt;chart</title>
<path fill="none" stroke="#000000" d="M662.6265,-42.8886C673.1637,-39.0852 685.5763,-34.6048 696.9449,-30.5013"/>
<polygon fill="#000000" stroke="#000000" points="698.3757,-33.7059 706.5934,-27.0186 695.999,-27.1217 698.3757,-33.7059"/>
</g>
</g>
</svg>
