<?xml version="1.0" encoding="UTF-8" standalone="no"?>
<!DOCTYPE svg PUBLIC "-//W3C//DTD SVG 1.1//EN"
 "http://www.w3.org/Graphics/SVG/1.1/DTD/svg11.dtd">
<!-- Generated by graphviz version 2.40.1 (20161225.0304)
 -->
<!-- Title: main Pages: 1 -->
<svg width="311pt" height="60pt"
 viewBox="0.00 0.00 311.40 60.00" xmlns="http://www.w3.org/2000/svg" xmlns:xlink="http://www.w3.org/1999/xlink">
<g id="graph0" class="graph" transform="scale(1 1) rotate(0) translate(4 56)">
<title>main</title>
<polygon fill="#ffffff" stroke="transparent" points="-4,4 -4,-56 307.3955,-56 307.3955,4 -4,4"/>
<!-- terraform -->
<g id="node1" class="node">
<title>terraform</title>
<polygon fill="#8a2be2" stroke="#8a2be2" points="124.0237,-26 96.6886,-44 42.0184,-44 14.6833,-26 42.0184,-8 96.6886,-8 124.0237,-26"/>
<polygon fill="none" stroke="#8a2be2" points="131.2922,-26 97.8826,-48 40.8243,-48 7.4148,-26 40.8243,-4 97.8826,-4 131.2922,-26"/>
<polygon fill="none" stroke="#8a2be2" points="138.5607,-26 99.0767,-52 39.6302,-52 .1462,-26 39.6302,0 99.0767,0 138.5607,-26"/>
<text text-anchor="middle" x="69.3535" y="-22.3" font-family="Times,serif" font-size="14.00" fill="#000000">Terraform</text>
</g>
<!-- cloud_provider -->
<g id="node2" class="node">
<title>cloud_provider</title>
<ellipse fill="none" stroke="#000000" cx="239.0512" cy="-26" rx="64.189" ry="18"/>
<text text-anchor="middle" x="239.0512" y="-22.3" font-family="Times,serif" font-size="14.00" fill="#000000">cloud_provider</text>
</g>
<!-- terraform&#45;&gt;cloud_provider -->
<g id="edge1" class="edge">
<title>terraform&#45;&gt;cloud_provider</title>
<path fill="none" stroke="#000000" d="M138.8657,-26C147.2602,-26 155.8618,-26 164.3271,-26"/>
<polygon fill="#000000" stroke="#000000" points="164.5621,-29.5001 174.5621,-26 164.5621,-22.5001 164.5621,-29.5001"/>
</g>
</g>
</svg>
