<?xml version="1.0" encoding="UTF-8" standalone="no"?>
<!DOCTYPE svg PUBLIC "-//W3C//DTD SVG 1.1//EN"
 "http://www.w3.org/Graphics/SVG/1.1/DTD/svg11.dtd">
<!-- Generated by graphviz version 2.40.1 (20161225.0304)
 -->
<!-- Title: main Pages: 1 -->
<svg width="882pt" height="166pt"
 viewBox="0.00 0.00 881.98 166.00" xmlns="http://www.w3.org/2000/svg" xmlns:xlink="http://www.w3.org/1999/xlink">
<g id="graph0" class="graph" transform="scale(1 1) rotate(0) translate(4 162)">
<title>main</title>
<polygon fill="#ffffff" stroke="transparent" points="-4,4 -4,-162 877.9815,-162 877.9815,4 -4,4"/>
<!-- terraform -->
<g id="node1" class="node">
<title>terraform</title>
<polygon fill="#8a2be2" stroke="#8a2be2" points="124.0237,-66 96.6886,-84 42.0184,-84 14.6833,-66 42.0184,-48 96.6886,-48 124.0237,-66"/>
<polygon fill="none" stroke="#8a2be2" points="131.2922,-66 97.8826,-88 40.8243,-88 7.4148,-66 40.8243,-44 97.8826,-44 131.2922,-66"/>
<polygon fill="none" stroke="#8a2be2" points="138.5607,-66 99.0767,-92 39.6302,-92 .1462,-66 39.6302,-40 99.0767,-40 138.5607,-66"/>
<text text-anchor="middle" x="69.3535" y="-62.3" font-family="Times,serif" font-size="14.00" fill="#000000">Terraform</text>
</g>
<!-- cloud_provider -->
<g id="node2" class="node">
<title>cloud_provider</title>
<ellipse fill="none" stroke="#000000" cx="312.0512" cy="-140" rx="64.189" ry="18"/>
<text text-anchor="middle" x="312.0512" y="-136.3" font-family="Times,serif" font-size="14.00" fill="#000000">cloud_provider</text>
</g>
<!-- terraform&#45;&gt;cloud_provider -->
<g id="edge4" class="edge">
<title>terraform&#45;&gt;cloud_provider</title>
<path fill="none" stroke="#000000" d="M110.1398,-84.9404C124.6418,-91.2279 141.2154,-97.9137 156.707,-103 186.6312,-112.825 220.5888,-121.2164 249.107,-127.5117"/>
<polygon fill="#000000" stroke="#000000" points="248.4367,-130.9477 258.9518,-129.65 249.9225,-124.1072 248.4367,-130.9477"/>
<text text-anchor="middle" x="193.207" y="-125.8" font-family="Times,serif" font-size="14.00" fill="#000000">infrastructure</text>
</g>
<!-- k8s_cluster -->
<g id="node3" class="node">
<title>k8s_cluster</title>
<ellipse fill="none" stroke="#000000" cx="581.091" cy="-100" rx="50.8918" ry="18"/>
<text text-anchor="middle" x="581.091" y="-96.3" font-family="Times,serif" font-size="14.00" fill="#000000">k8s_cluster</text>
</g>
<!-- terraform&#45;&gt;k8s_cluster -->
<g id="edge5" class="edge">
<title>terraform&#45;&gt;k8s_cluster</title>
<path fill="none" stroke="#000000" d="M132.359,-70.1861C231.6975,-76.7862 423.4264,-89.5247 520.9531,-96.0044"/>
<polygon fill="#000000" stroke="#000000" points="520.735,-99.4976 530.945,-96.6683 521.1991,-92.5129 520.735,-99.4976"/>
<text text-anchor="middle" x="312.0512" y="-89.8" font-family="Times,serif" font-size="14.00" fill="#000000">secrets, tiller</text>
</g>
<!-- helm -->
<g id="node4" class="node">
<title>helm</title>
<ellipse fill="none" stroke="#000000" cx="724.2865" cy="-46" rx="28.6953" ry="18"/>
<text text-anchor="middle" x="724.2865" y="-42.3" font-family="Times,serif" font-size="14.00" fill="#000000">helm</text>
</g>
<!-- terraform&#45;&gt;helm -->
<g id="edge6" class="edge">
<title>terraform&#45;&gt;helm</title>
<path fill="none" stroke="#000000" d="M135.7562,-63.9722C271.5583,-59.8252 577.3418,-50.4873 685.4894,-47.1848"/>
<polygon fill="#000000" stroke="#000000" points="685.7337,-50.679 695.6222,-46.8753 685.52,-43.6823 685.7337,-50.679"/>
<text text-anchor="middle" x="453.3955" y="-59.8" font-family="Times,serif" font-size="14.00" fill="#000000">datasource</text>
</g>
<!-- chart -->
<g id="node5" class="node">
<title>chart</title>
<ellipse fill="none" stroke="#000000" cx="845.384" cy="-46" rx="28.6953" ry="18"/>
<text text-anchor="middle" x="845.384" y="-42.3" font-family="Times,serif" font-size="14.00" fill="#000000">chart</text>
</g>
<!-- terraform&#45;&gt;chart -->
<g id="edge7" class="edge">
<title>terraform&#45;&gt;chart</title>
<path fill="none" stroke="#ff0000" d="M110.9456,-47.4397C158.5531,-27.9185 239.3486,0 312.0512,0 312.0512,0 312.0512,0 724.2865,0 757.4428,0 792.5728,-15.2562 816.4066,-28.1967"/>
<polygon fill="#ff0000" stroke="#ff0000" points="814.8388,-31.3305 825.2698,-33.1864 818.2728,-25.2307 814.8388,-31.3305"/>
<text text-anchor="middle" x="581.091" y="-3.8" font-family="Times,serif" font-size="14.00" fill="#000000">values</text>
</g>
<!-- cloud_provider&#45;&gt;k8s_cluster -->
<g id="edge1" class="edge">
<title>cloud_provider&#45;&gt;k8s_cluster</title>
<path fill="none" stroke="#000000" d="M369.1077,-131.517C414.7092,-124.7371 478.3269,-115.2786 523.9506,-108.4955"/>
<polygon fill="#000000" stroke="#000000" points="524.6013,-111.9373 533.9778,-107.0047 523.5718,-105.0134 524.6013,-111.9373"/>
</g>
<!-- k8s_cluster&#45;&gt;cloud_provider -->
<g id="edge9" class="edge">
<title>k8s_cluster&#45;&gt;cloud_provider</title>
<path fill="none" stroke="#000000" d="M548.4377,-113.9561C537.2085,-118.1948 524.431,-122.4111 512.3955,-125 471.5642,-133.7831 425.098,-137.6315 387.2015,-139.2399"/>
<polygon fill="#000000" stroke="#000000" points="386.6118,-135.7597 376.7518,-139.6364 386.8773,-142.7547 386.6118,-135.7597"/>
<text text-anchor="middle" x="453.3955" y="-141.8" font-family="Times,serif" font-size="14.00" fill="#000000">infrastructure, dns, lb</text>
</g>
<!-- k8s_cluster&#45;&gt;helm -->
<g id="edge2" class="edge">
<title>k8s_cluster&#45;&gt;helm</title>
<path fill="none" stroke="#000000" d="M616.1206,-86.7901C638.6237,-78.3041 667.7147,-67.3336 690.0588,-58.9075"/>
<polygon fill="#000000" stroke="#000000" points="691.3702,-62.1537 699.492,-55.3502 688.9002,-55.6039 691.3702,-62.1537"/>
</g>
<!-- helm&#45;&gt;chart -->
<g id="edge3" class="edge">
<title>helm&#45;&gt;chart</title>
<path fill="none" stroke="#000000" d="M752.985,-46C768.8552,-46 788.8064,-46 806.1045,-46"/>
<polygon fill="#000000" stroke="#000000" points="806.472,-49.5001 816.4719,-46 806.4719,-42.5001 806.472,-49.5001"/>
</g>
<!-- chart&#45;&gt;k8s_cluster -->
<g id="edge8" class="edge">
<title>chart&#45;&gt;k8s_cluster</title>
<path fill="none" stroke="#000000" d="M822.5093,-57.1046C810.1292,-62.6787 794.4146,-69.0653 779.7865,-73 734.171,-85.2698 681.0904,-92.118 641.2732,-95.8449"/>
<polygon fill="#000000" stroke="#000000" points="640.8378,-92.3698 631.1903,-96.7487 641.4629,-99.3419 640.8378,-92.3698"/>
<text text-anchor="middle" x="724.2865" y="-95.8" font-family="Times,serif" font-size="14.00" fill="#000000">scaling, ingress, dns</text>
</g>
</g>
</svg>
