<?xml version="1.0" encoding="UTF-8" standalone="no"?>
<!DOCTYPE svg PUBLIC "-//W3C//DTD SVG 1.1//EN"
 "http://www.w3.org/Graphics/SVG/1.1/DTD/svg11.dtd">
<!-- Generated by graphviz version 2.40.1 (20161225.0304)
 -->
<!-- Title: main Pages: 1 -->
<svg width="796pt" height="167pt"
 viewBox="0.00 0.00 795.98 167.00" xmlns="http://www.w3.org/2000/svg" xmlns:xlink="http://www.w3.org/1999/xlink">
<g id="graph0" class="graph" transform="scale(1 1) rotate(0) translate(4 163)">
<title>main</title>
<polygon fill="#ffffff" stroke="transparent" points="-4,4 -4,-163 791.9815,-163 791.9815,4 -4,4"/>
<!-- terraform -->
<g id="node1" class="node">
<title>terraform</title>
<polygon fill="#8a2be2" stroke="#8a2be2" points="124.0237,-67 96.6886,-85 42.0184,-85 14.6833,-67 42.0184,-49 96.6886,-49 124.0237,-67"/>
<polygon fill="none" stroke="#8a2be2" points="131.2922,-67 97.8826,-89 40.8243,-89 7.4148,-67 40.8243,-45 97.8826,-45 131.2922,-67"/>
<polygon fill="none" stroke="#8a2be2" points="138.5607,-67 99.0767,-93 39.6302,-93 .1462,-67 39.6302,-41 99.0767,-41 138.5607,-67"/>
<text text-anchor="middle" x="69.3535" y="-63.3" font-family="Times,serif" font-size="14.00" fill="#000000">Terraform</text>
</g>
<!-- cloud_provider -->
<g id="node2" class="node">
<title>cloud_provider</title>
<ellipse fill="none" stroke="#000000" cx="312.0512" cy="-141" rx="64.189" ry="18"/>
<text text-anchor="middle" x="312.0512" y="-137.3" font-family="Times,serif" font-size="14.00" fill="#000000">cloud_provider</text>
</g>
<!-- terraform&#45;&gt;cloud_provider -->
<g id="edge4" class="edge">
<title>terraform&#45;&gt;cloud_provider</title>
<path fill="none" stroke="#000000" d="M110.1398,-85.9404C124.6418,-92.2279 141.2154,-98.9137 156.707,-104 186.6312,-113.825 220.5888,-122.2164 249.107,-128.5117"/>
<polygon fill="#000000" stroke="#000000" points="248.4367,-131.9477 258.9518,-130.65 249.9225,-125.1072 248.4367,-131.9477"/>
<text text-anchor="middle" x="193.207" y="-126.8" font-family="Times,serif" font-size="14.00" fill="#000000">infrastructure</text>
</g>
<!-- k8s_cluster -->
<g id="node3" class="node">
<title>k8s_cluster</title>
<ellipse fill="none" stroke="#000000" cx="521.091" cy="-95" rx="50.8918" ry="18"/>
<text text-anchor="middle" x="521.091" y="-91.3" font-family="Times,serif" font-size="14.00" fill="#000000">k8s_cluster</text>
</g>
<!-- terraform&#45;&gt;k8s_cluster -->
<g id="edge5" class="edge">
<title>terraform&#45;&gt;k8s_cluster</title>
<path fill="none" stroke="#000000" d="M132.6413,-70.9228C219.7924,-76.3246 375.6409,-85.9846 461.0479,-91.2783"/>
<polygon fill="#000000" stroke="#000000" points="460.9074,-94.7763 471.1048,-91.9017 461.3405,-87.7897 460.9074,-94.7763"/>
<text text-anchor="middle" x="312.0512" y="-89.8" font-family="Times,serif" font-size="14.00" fill="#000000">secrets, tiller</text>
</g>
<!-- helm -->
<g id="node4" class="node">
<title>helm</title>
<ellipse fill="none" stroke="#000000" cx="651.2865" cy="-46" rx="28.6953" ry="18"/>
<text text-anchor="middle" x="651.2865" y="-42.3" font-family="Times,serif" font-size="14.00" fill="#000000">helm</text>
</g>
<!-- terraform&#45;&gt;helm -->
<g id="edge6" class="edge">
<title>terraform&#45;&gt;helm</title>
<path fill="none" stroke="#000000" d="M134.9774,-64.6319C256.866,-60.2333 514.6927,-50.9292 612.5295,-47.3986"/>
<polygon fill="#000000" stroke="#000000" points="612.7054,-50.8946 622.5727,-47.0362 612.4529,-43.8992 612.7054,-50.8946"/>
<text text-anchor="middle" x="423.3955" y="-58.8" font-family="Times,serif" font-size="14.00" fill="#000000">datasource</text>
</g>
<!-- chart -->
<g id="node5" class="node">
<title>chart</title>
<ellipse fill="none" stroke="#000000" cx="759.384" cy="-46" rx="28.6953" ry="18"/>
<text text-anchor="middle" x="759.384" y="-42.3" font-family="Times,serif" font-size="14.00" fill="#000000">chart</text>
</g>
<!-- terraform&#45;&gt;chart -->
<g id="edge7" class="edge">
<title>terraform&#45;&gt;chart</title>
<path fill="none" stroke="#000000" d="M110.4898,-48.3368C158.0145,-28.512 239.0537,0 312.0512,0 312.0512,0 312.0512,0 651.2865,0 680.4234,0 710.7039,-14.325 731.7781,-26.9871"/>
<polygon fill="#000000" stroke="#000000" points="730.1628,-30.1052 740.4956,-32.4473 733.8786,-24.1728 730.1628,-30.1052"/>
<text text-anchor="middle" x="521.091" y="-3.8" font-family="Times,serif" font-size="14.00" fill="#000000">values</text>
</g>
<!-- cloud_provider&#45;&gt;k8s_cluster -->
<g id="edge1" class="edge">
<title>cloud_provider&#45;&gt;k8s_cluster</title>
<path fill="none" stroke="#000000" d="M362.654,-129.8647C394.3822,-122.8828 435.2387,-113.8921 467.5153,-106.7895"/>
<polygon fill="#000000" stroke="#000000" points="468.6567,-110.1222 477.6708,-104.5548 467.1522,-103.2858 468.6567,-110.1222"/>
</g>
<!-- k8s_cluster&#45;&gt;helm -->
<g id="edge2" class="edge">
<title>k8s_cluster&#45;&gt;helm</title>
<path fill="none" stroke="#000000" d="M555.981,-81.8689C574.9672,-74.7233 598.3583,-65.9199 617.2155,-58.8229"/>
<polygon fill="#000000" stroke="#000000" points="618.4897,-62.0831 626.616,-55.2849 616.024,-55.5317 618.4897,-62.0831"/>
</g>
<!-- helm&#45;&gt;chart -->
<g id="edge3" class="edge">
<title>helm&#45;&gt;chart</title>
<path fill="none" stroke="#000000" d="M679.9709,-46C692.3094,-46 706.9286,-46 720.2396,-46"/>
<polygon fill="#000000" stroke="#000000" points="720.5657,-49.5001 730.5656,-46 720.5656,-42.5001 720.5657,-49.5001"/>
</g>
<!-- chart&#45;&gt;k8s_cluster -->
<g id="edge8" class="edge">
<title>chart&#45;&gt;k8s_cluster</title>
<path fill="none" stroke="#000000" d="M736.5225,-57.154C724.1461,-62.7422 708.4309,-69.1264 693.7865,-73 657.1118,-82.7009 614.8858,-88.1777 581.3682,-91.2406"/>
<polygon fill="#000000" stroke="#000000" points="580.9224,-87.766 571.2616,-92.1157 581.5263,-94.7399 580.9224,-87.766"/>
<text text-anchor="middle" x="651.2865" y="-91.8" font-family="Times,serif" font-size="14.00" fill="#000000">scaling, ingress</text>
</g>
</g>
</svg>
